<svg width="92" height="39" viewBox="0 0 92 39" fill="none" xmlns="http://www.w3.org/2000/svg">
<g filter="url(#filter0_d_480_122)">
<mask id="path-1-outside-1_480_122" maskUnits="userSpaceOnUse" x="3.28003" y="0.0400085" width="85" height="31" fill="black">
<rect fill="white" x="3.28003" y="0.0400085" width="85" height="31"/>
<path d="M24.14 30V29.7H24.53C25.07 29.7 25.52 29.62 25.88 29.46C26.26 29.3 26.54 29.06 26.72 28.74C26.9 28.42 26.99 28.02 26.99 27.54V10.92C26.99 10.46 26.9 10.08 26.72 9.78001C26.54 9.48001 26.26 9.26001 25.88 9.12001C25.52 8.96001 25.07 8.88001 24.53 8.88001H24.14V8.58001H32.21C33.95 8.58001 35.39 8.80001 36.53 9.24001C37.67 9.66001 38.52 10.29 39.08 11.13C39.64 11.97 39.92 12.99 39.92 14.19C39.92 15.35 39.68 16.31 39.2 17.07C38.74 17.81 38.14 18.39 37.4 18.81C36.68 19.23 35.93 19.55 35.15 19.77L39.38 26.37C39.8 27.01 40.16 27.55 40.46 27.99C40.78 28.41 41.07 28.75 41.33 29.01C41.59 29.25 41.83 29.43 42.05 29.55C42.29 29.65 42.53 29.7 42.77 29.7H42.86V30H42.44C41.5 30 40.72 29.97 40.1 29.91C39.5 29.83 39 29.7 38.6 29.52C38.2 29.34 37.84 29.08 37.52 28.74C37.22 28.38 36.89 27.92 36.53 27.36L31.91 20.01H30.02V27.54C30.02 28.02 30.11 28.42 30.29 28.74C30.47 29.06 30.74 29.3 31.1 29.46C31.48 29.62 31.94 29.7 32.48 29.7H32.87V30H24.14ZM32.12 19.71C33.24 19.71 34.13 19.54 34.79 19.2C35.47 18.84 35.96 18.27 36.26 17.49C36.56 16.71 36.71 15.68 36.71 14.4C36.71 13.08 36.55 12.02 36.23 11.22C35.93 10.4 35.44 9.81001 34.76 9.45001C34.08 9.07001 33.18 8.88001 32.06 8.88001H30.02V19.71H32.12Z"/>
<path d="M58.6316 30.3C56.5116 30.3 54.7516 29.84 53.3516 28.92C51.9516 28 50.9016 26.71 50.2016 25.05C49.5216 23.39 49.1816 21.45 49.1816 19.23C49.1816 17.01 49.5216 15.08 50.2016 13.44C50.9016 11.8 51.9516 10.53 53.3516 9.63001C54.7716 8.71001 56.5416 8.25001 58.6616 8.25001C60.6816 8.25001 62.3816 8.71001 63.7616 9.63001C65.1616 10.53 66.2216 11.81 66.9416 13.47C67.6816 15.11 68.0516 17.04 68.0516 19.26C68.0516 21.48 67.6816 23.42 66.9416 25.08C66.2216 26.72 65.1616 28 63.7616 28.92C62.3616 29.84 60.6516 30.3 58.6316 30.3ZM58.6316 30C59.6916 30 60.6016 29.8 61.3616 29.4C62.1416 28.98 62.7716 28.34 63.2516 27.48C63.7516 26.6 64.1216 25.48 64.3616 24.12C64.6016 22.76 64.7216 21.14 64.7216 19.26C64.7216 17.38 64.6016 15.77 64.3616 14.43C64.1216 13.07 63.7516 11.96 63.2516 11.1C62.7716 10.22 62.1516 9.58001 61.3916 9.18001C60.6316 8.76001 59.7216 8.55001 58.6616 8.55001C57.5816 8.55001 56.6516 8.76001 55.8716 9.18001C55.1116 9.58001 54.4816 10.22 53.9816 11.1C53.4816 11.96 53.1116 13.07 52.8716 14.43C52.6316 15.77 52.5116 17.38 52.5116 19.26C52.5116 21.14 52.6316 22.76 52.8716 24.12C53.1116 25.48 53.4716 26.6 53.9516 27.48C54.4516 28.34 55.0816 28.98 55.8416 29.4C56.6216 29.8 57.5516 30 58.6316 30Z"/>
<path d="M18.04 30.4C14.9467 30.4 12.3734 29.7867 10.32 28.56C8.29336 27.3333 6.77336 25.6267 5.76003 23.44C4.77336 21.2267 4.28003 18.64 4.28003 15.68C4.28003 12.8 4.77336 10.2667 5.76003 8.08001C6.7467 5.86668 8.24003 4.14668 10.24 2.92001C12.2667 1.66668 14.8134 1.04001 17.88 1.04001C19.8534 1.04001 21.52 1.22668 22.88 1.60001C24.2667 1.97334 25.32 2.49334 26.04 3.16001C26.76 3.80001 27.12 4.54668 27.12 5.40001C27.12 6.30668 26.8267 7.00001 26.24 7.48001C25.68 7.93334 24.7334 8.21334 23.4 8.32001C23.4 6.66668 23.2 5.33334 22.8 4.32001C22.4267 3.30668 21.8267 2.57334 21 2.12001C20.1734 1.66668 19.08 1.44001 17.72 1.44001C15.56 1.44001 13.8134 1.92001 12.48 2.88001C11.1734 3.81334 10.2134 5.33334 9.60003 7.44001C9.01336 9.52001 8.72003 12.2667 8.72003 15.68C8.72003 19.12 9.05336 21.8933 9.72003 24C10.3867 26.08 11.4534 27.6 12.92 28.56C14.3867 29.52 16.3067 30 18.68 30C19.4534 30 20.2 29.9467 20.92 29.84C21.64 29.7067 22.28 29.56 22.84 29.4V19.92C22.84 19.3067 22.72 18.8 22.48 18.4C22.24 18 21.8667 17.7067 21.36 17.52C20.88 17.3067 20.28 17.2 19.56 17.2H19.4V16.8H29.8V17.2H29.64C28.9467 17.2 28.4 17.3067 28 17.52C27.6 17.7333 27.3067 18.0533 27.12 18.48C26.96 18.9067 26.88 19.44 26.88 20.08V28.56C25.5467 29.1733 24.1734 29.64 22.76 29.96C21.3467 30.2533 19.7734 30.4 18.04 30.4Z"/>
<path d="M73.96 30.4C77.0534 30.4 79.6267 29.7867 81.68 28.56C83.7067 27.3333 85.2267 25.6267 86.24 23.44C87.2267 21.2267 87.72 18.64 87.72 15.68C87.72 12.8 87.2267 10.2667 86.24 8.08001C85.2534 5.86668 83.76 4.14668 81.76 2.92001C79.7334 1.66668 77.1867 1.04001 74.12 1.04001C72.1467 1.04001 70.48 1.22668 69.12 1.60001C67.7334 1.97334 66.68 2.49334 65.96 3.16001C65.24 3.80001 64.88 4.54668 64.88 5.40001C64.88 6.30668 65.1734 7.00001 65.76 7.48001C66.32 7.93334 67.2667 8.21334 68.6 8.32001C68.6 6.66668 68.8 5.33334 69.2 4.32001C69.5734 3.30668 70.1734 2.57334 71 2.12001C71.8267 1.66668 72.92 1.44001 74.28 1.44001C76.44 1.44001 78.1867 1.92001 79.52 2.88001C80.8267 3.81334 81.7867 5.33334 82.4 7.44001C82.9867 9.52001 83.28 12.2667 83.28 15.68C83.28 19.12 82.9467 21.8933 82.28 24C81.6134 26.08 80.5467 27.6 79.08 28.56C77.6134 29.52 75.6934 30 73.32 30C72.5467 30 71.8 29.9467 71.08 29.84C70.36 29.7067 69.72 29.56 69.16 29.4V19.92C69.16 19.3067 69.28 18.8 69.52 18.4C69.76 18 70.1334 17.7067 70.64 17.52C71.12 17.3067 71.72 17.2 72.44 17.2H72.6V16.8H62.2V17.2H62.36C63.0534 17.2 63.6 17.3067 64 17.52C64.4 17.7333 64.6934 18.0533 64.88 18.48C65.04 18.9067 65.12 19.44 65.12 20.08V28.56C66.4534 29.1733 67.8267 29.64 69.24 29.96C70.6534 30.2533 72.2267 30.4 73.96 30.4Z"/>
</mask>
<path d="M24.14 30V29.7H24.53C25.07 29.7 25.52 29.62 25.88 29.46C26.26 29.3 26.54 29.06 26.72 28.74C26.9 28.42 26.99 28.02 26.99 27.54V10.92C26.99 10.46 26.9 10.08 26.72 9.78001C26.54 9.48001 26.26 9.26001 25.88 9.12001C25.52 8.96001 25.07 8.88001 24.53 8.88001H24.14V8.58001H32.21C33.95 8.58001 35.39 8.80001 36.53 9.24001C37.67 9.66001 38.52 10.29 39.08 11.13C39.64 11.97 39.92 12.99 39.92 14.19C39.92 15.35 39.68 16.31 39.2 17.07C38.74 17.81 38.14 18.39 37.4 18.81C36.68 19.23 35.93 19.55 35.15 19.77L39.38 26.37C39.8 27.01 40.16 27.55 40.46 27.99C40.78 28.41 41.07 28.75 41.33 29.01C41.59 29.25 41.83 29.43 42.05 29.55C42.29 29.65 42.53 29.7 42.77 29.7H42.86V30H42.44C41.5 30 40.72 29.97 40.1 29.91C39.5 29.83 39 29.7 38.6 29.52C38.2 29.34 37.84 29.08 37.52 28.74C37.22 28.38 36.89 27.92 36.53 27.36L31.91 20.01H30.02V27.54C30.02 28.02 30.11 28.42 30.29 28.74C30.47 29.06 30.74 29.3 31.1 29.46C31.48 29.62 31.94 29.7 32.48 29.7H32.87V30H24.14ZM32.12 19.71C33.24 19.71 34.13 19.54 34.79 19.2C35.47 18.84 35.96 18.27 36.26 17.49C36.56 16.71 36.71 15.68 36.71 14.4C36.71 13.08 36.55 12.02 36.23 11.22C35.93 10.4 35.44 9.81001 34.76 9.45001C34.08 9.07001 33.18 8.88001 32.06 8.88001H30.02V19.71H32.12Z" fill="white"/>
<path d="M58.6316 30.3C56.5116 30.3 54.7516 29.84 53.3516 28.92C51.9516 28 50.9016 26.71 50.2016 25.05C49.5216 23.39 49.1816 21.45 49.1816 19.23C49.1816 17.01 49.5216 15.08 50.2016 13.44C50.9016 11.8 51.9516 10.53 53.3516 9.63001C54.7716 8.71001 56.5416 8.25001 58.6616 8.25001C60.6816 8.25001 62.3816 8.71001 63.7616 9.63001C65.1616 10.53 66.2216 11.81 66.9416 13.47C67.6816 15.11 68.0516 17.04 68.0516 19.26C68.0516 21.48 67.6816 23.42 66.9416 25.08C66.2216 26.72 65.1616 28 63.7616 28.92C62.3616 29.84 60.6516 30.3 58.6316 30.3ZM58.6316 30C59.6916 30 60.6016 29.8 61.3616 29.4C62.1416 28.98 62.7716 28.34 63.2516 27.48C63.7516 26.6 64.1216 25.48 64.3616 24.12C64.6016 22.76 64.7216 21.14 64.7216 19.26C64.7216 17.38 64.6016 15.77 64.3616 14.43C64.1216 13.07 63.7516 11.96 63.2516 11.1C62.7716 10.22 62.1516 9.58001 61.3916 9.18001C60.6316 8.76001 59.7216 8.55001 58.6616 8.55001C57.5816 8.55001 56.6516 8.76001 55.8716 9.18001C55.1116 9.58001 54.4816 10.22 53.9816 11.1C53.4816 11.96 53.1116 13.07 52.8716 14.43C52.6316 15.77 52.5116 17.38 52.5116 19.26C52.5116 21.14 52.6316 22.76 52.8716 24.12C53.1116 25.48 53.4716 26.6 53.9516 27.48C54.4516 28.34 55.0816 28.98 55.8416 29.4C56.6216 29.8 57.5516 30 58.6316 30Z" fill="white"/>
<path d="M18.04 30.4C14.9467 30.4 12.3734 29.7867 10.32 28.56C8.29336 27.3333 6.77336 25.6267 5.76003 23.44C4.77336 21.2267 4.28003 18.64 4.28003 15.68C4.28003 12.8 4.77336 10.2667 5.76003 8.08001C6.7467 5.86668 8.24003 4.14668 10.24 2.92001C12.2667 1.66668 14.8134 1.04001 17.88 1.04001C19.8534 1.04001 21.52 1.22668 22.88 1.60001C24.2667 1.97334 25.32 2.49334 26.04 3.16001C26.76 3.80001 27.12 4.54668 27.12 5.40001C27.12 6.30668 26.8267 7.00001 26.24 7.48001C25.68 7.93334 24.7334 8.21334 23.4 8.32001C23.4 6.66668 23.2 5.33334 22.8 4.32001C22.4267 3.30668 21.8267 2.57334 21 2.12001C20.1734 1.66668 19.08 1.44001 17.72 1.44001C15.56 1.44001 13.8134 1.92001 12.48 2.88001C11.1734 3.81334 10.2134 5.33334 9.60003 7.44001C9.01336 9.52001 8.72003 12.2667 8.72003 15.68C8.72003 19.12 9.05336 21.8933 9.72003 24C10.3867 26.08 11.4534 27.6 12.92 28.56C14.3867 29.52 16.3067 30 18.68 30C19.4534 30 20.2 29.9467 20.92 29.84C21.64 29.7067 22.28 29.56 22.84 29.4V19.92C22.84 19.3067 22.72 18.8 22.48 18.4C22.24 18 21.8667 17.7067 21.36 17.52C20.88 17.3067 20.28 17.2 19.56 17.2H19.4V16.8H29.8V17.2H29.64C28.9467 17.2 28.4 17.3067 28 17.52C27.6 17.7333 27.3067 18.0533 27.12 18.48C26.96 18.9067 26.88 19.44 26.88 20.08V28.56C25.5467 29.1733 24.1734 29.64 22.76 29.96C21.3467 30.2533 19.7734 30.4 18.04 30.4Z" fill="white"/>
<path d="M73.96 30.4C77.0534 30.4 79.6267 29.7867 81.68 28.56C83.7067 27.3333 85.2267 25.6267 86.24 23.44C87.2267 21.2267 87.72 18.64 87.72 15.68C87.72 12.8 87.2267 10.2667 86.24 8.08001C85.2534 5.86668 83.76 4.14668 81.76 2.92001C79.7334 1.66668 77.1867 1.04001 74.12 1.04001C72.1467 1.04001 70.48 1.22668 69.12 1.60001C67.7334 1.97334 66.68 2.49334 65.96 3.16001C65.24 3.80001 64.88 4.54668 64.88 5.40001C64.88 6.30668 65.1734 7.00001 65.76 7.48001C66.32 7.93334 67.2667 8.21334 68.6 8.32001C68.6 6.66668 68.8 5.33334 69.2 4.32001C69.5734 3.30668 70.1734 2.57334 71 2.12001C71.8267 1.66668 72.92 1.44001 74.28 1.44001C76.44 1.44001 78.1867 1.92001 79.52 2.88001C80.8267 3.81334 81.7867 5.33334 82.4 7.44001C82.9867 9.52001 83.28 12.2667 83.28 15.68C83.28 19.12 82.9467 21.8933 82.28 24C81.6134 26.08 80.5467 27.6 79.08 28.56C77.6134 29.52 75.6934 30 73.32 30C72.5467 30 71.8 29.9467 71.08 29.84C70.36 29.7067 69.72 29.56 69.16 29.4V19.92C69.16 19.3067 69.28 18.8 69.52 18.4C69.76 18 70.1334 17.7067 70.64 17.52C71.12 17.3067 71.72 17.2 72.44 17.2H72.6V16.8H62.2V17.2H62.36C63.0534 17.2 63.6 17.3067 64 17.52C64.4 17.7333 64.6934 18.0533 64.88 18.48C65.04 18.9067 65.12 19.44 65.12 20.08V28.56C66.4534 29.1733 67.8267 29.64 69.24 29.96C70.6534 30.2533 72.2267 30.4 73.96 30.4Z" fill="white"/>
<path d="M24.14 30V29.7H24.53C25.07 29.7 25.52 29.62 25.88 29.46C26.26 29.3 26.54 29.06 26.72 28.74C26.9 28.42 26.99 28.02 26.99 27.54V10.92C26.99 10.46 26.9 10.08 26.72 9.78001C26.54 9.48001 26.26 9.26001 25.88 9.12001C25.52 8.96001 25.07 8.88001 24.53 8.88001H24.14V8.58001H32.21C33.95 8.58001 35.39 8.80001 36.53 9.24001C37.67 9.66001 38.52 10.29 39.08 11.13C39.64 11.97 39.92 12.99 39.92 14.19C39.92 15.35 39.68 16.31 39.2 17.07C38.74 17.81 38.14 18.39 37.4 18.81C36.68 19.23 35.93 19.55 35.15 19.77L39.38 26.37C39.8 27.01 40.16 27.55 40.46 27.99C40.78 28.41 41.07 28.75 41.33 29.01C41.59 29.25 41.83 29.43 42.05 29.55C42.29 29.65 42.53 29.7 42.77 29.7H42.86V30H42.44C41.5 30 40.72 29.97 40.1 29.91C39.5 29.83 39 29.7 38.6 29.52C38.2 29.34 37.84 29.08 37.52 28.74C37.22 28.38 36.89 27.92 36.53 27.36L31.91 20.01H30.02V27.54C30.02 28.02 30.11 28.42 30.29 28.74C30.47 29.06 30.74 29.3 31.1 29.46C31.48 29.62 31.94 29.7 32.48 29.7H32.87V30H24.14ZM32.12 19.71C33.24 19.71 34.13 19.54 34.79 19.2C35.47 18.84 35.96 18.27 36.26 17.49C36.56 16.71 36.71 15.68 36.71 14.4C36.71 13.08 36.55 12.02 36.23 11.22C35.93 10.4 35.44 9.81001 34.76 9.45001C34.08 9.07001 33.18 8.88001 32.06 8.88001H30.02V19.71H32.12Z" stroke="black" stroke-width="0.4" mask="url(#path-1-outside-1_480_122)"/>
<path d="M58.6316 30.3C56.5116 30.3 54.7516 29.84 53.3516 28.92C51.9516 28 50.9016 26.71 50.2016 25.05C49.5216 23.39 49.1816 21.45 49.1816 19.23C49.1816 17.01 49.5216 15.08 50.2016 13.44C50.9016 11.8 51.9516 10.53 53.3516 9.63001C54.7716 8.71001 56.5416 8.25001 58.6616 8.25001C60.6816 8.25001 62.3816 8.71001 63.7616 9.63001C65.1616 10.53 66.2216 11.81 66.9416 13.47C67.6816 15.11 68.0516 17.04 68.0516 19.26C68.0516 21.48 67.6816 23.42 66.9416 25.08C66.2216 26.72 65.1616 28 63.7616 28.92C62.3616 29.84 60.6516 30.3 58.6316 30.3ZM58.6316 30C59.6916 30 60.6016 29.8 61.3616 29.4C62.1416 28.98 62.7716 28.34 63.2516 27.48C63.7516 26.6 64.1216 25.48 64.3616 24.12C64.6016 22.76 64.7216 21.14 64.7216 19.26C64.7216 17.38 64.6016 15.77 64.3616 14.43C64.1216 13.07 63.7516 11.96 63.2516 11.1C62.7716 10.22 62.1516 9.58001 61.3916 9.18001C60.6316 8.76001 59.7216 8.55001 58.6616 8.55001C57.5816 8.55001 56.6516 8.76001 55.8716 9.18001C55.1116 9.58001 54.4816 10.22 53.9816 11.1C53.4816 11.96 53.1116 13.07 52.8716 14.43C52.6316 15.77 52.5116 17.38 52.5116 19.26C52.5116 21.14 52.6316 22.76 52.8716 24.12C53.1116 25.48 53.4716 26.6 53.9516 27.48C54.4516 28.34 55.0816 28.98 55.8416 29.4C56.6216 29.8 57.5516 30 58.6316 30Z" stroke="black" stroke-width="0.4" mask="url(#path-1-outside-1_480_122)"/>
<path d="M18.04 30.4C14.9467 30.4 12.3734 29.7867 10.32 28.56C8.29336 27.3333 6.77336 25.6267 5.76003 23.44C4.77336 21.2267 4.28003 18.64 4.28003 15.68C4.28003 12.8 4.77336 10.2667 5.76003 8.08001C6.7467 5.86668 8.24003 4.14668 10.24 2.92001C12.2667 1.66668 14.8134 1.04001 17.88 1.04001C19.8534 1.04001 21.52 1.22668 22.88 1.60001C24.2667 1.97334 25.32 2.49334 26.04 3.16001C26.76 3.80001 27.12 4.54668 27.12 5.40001C27.12 6.30668 26.8267 7.00001 26.24 7.48001C25.68 7.93334 24.7334 8.21334 23.4 8.32001C23.4 6.66668 23.2 5.33334 22.8 4.32001C22.4267 3.30668 21.8267 2.57334 21 2.12001C20.1734 1.66668 19.08 1.44001 17.72 1.44001C15.56 1.44001 13.8134 1.92001 12.48 2.88001C11.1734 3.81334 10.2134 5.33334 9.60003 7.44001C9.01336 9.52001 8.72003 12.2667 8.72003 15.68C8.72003 19.12 9.05336 21.8933 9.72003 24C10.3867 26.08 11.4534 27.6 12.92 28.56C14.3867 29.52 16.3067 30 18.68 30C19.4534 30 20.2 29.9467 20.92 29.84C21.64 29.7067 22.28 29.56 22.84 29.4V19.92C22.84 19.3067 22.72 18.8 22.48 18.4C22.24 18 21.8667 17.7067 21.36 17.52C20.88 17.3067 20.28 17.2 19.56 17.2H19.4V16.8H29.8V17.2H29.64C28.9467 17.2 28.4 17.3067 28 17.52C27.6 17.7333 27.3067 18.0533 27.12 18.48C26.96 18.9067 26.88 19.44 26.88 20.08V28.56C25.5467 29.1733 24.1734 29.64 22.76 29.96C21.3467 30.2533 19.7734 30.4 18.04 30.4Z" stroke="black" stroke-width="0.4" mask="url(#path-1-outside-1_480_122)"/>
<path d="M73.96 30.4C77.0534 30.4 79.6267 29.7867 81.68 28.56C83.7067 27.3333 85.2267 25.6267 86.24 23.44C87.2267 21.2267 87.72 18.64 87.72 15.68C87.72 12.8 87.2267 10.2667 86.24 8.08001C85.2534 5.86668 83.76 4.14668 81.76 2.92001C79.7334 1.66668 77.1867 1.04001 74.12 1.04001C72.1467 1.04001 70.48 1.22668 69.12 1.60001C67.7334 1.97334 66.68 2.49334 65.96 3.16001C65.24 3.80001 64.88 4.54668 64.88 5.40001C64.88 6.30668 65.1734 7.00001 65.76 7.48001C66.32 7.93334 67.2667 8.21334 68.6 8.32001C68.6 6.66668 68.8 5.33334 69.2 4.32001C69.5734 3.30668 70.1734 2.57334 71 2.12001C71.8267 1.66668 72.92 1.44001 74.28 1.44001C76.44 1.44001 78.1867 1.92001 79.52 2.88001C80.8267 3.81334 81.7867 5.33334 82.4 7.44001C82.9867 9.52001 83.28 12.2667 83.28 15.68C83.28 19.12 82.9467 21.8933 82.28 24C81.6134 26.08 80.5467 27.6 79.08 28.56C77.6134 29.52 75.6934 30 73.32 30C72.5467 30 71.8 29.9467 71.08 29.84C70.36 29.7067 69.72 29.56 69.16 29.4V19.92C69.16 19.3067 69.28 18.8 69.52 18.4C69.76 18 70.1334 17.7067 70.64 17.52C71.12 17.3067 71.72 17.2 72.44 17.2H72.6V16.8H62.2V17.2H62.36C63.0534 17.2 63.6 17.3067 64 17.52C64.4 17.7333 64.6934 18.0533 64.88 18.48C65.04 18.9067 65.12 19.44 65.12 20.08V28.56C66.4534 29.1733 67.8267 29.64 69.24 29.96C70.6534 30.2533 72.2267 30.4 73.96 30.4Z" stroke="black" stroke-width="0.4" mask="url(#path-1-outside-1_480_122)"/>
</g>
<defs>
<filter id="filter0_d_480_122" x="0.0800781" y="0.839996" width="91.84" height="37.76" filterUnits="userSpaceOnUse" color-interpolation-filters="sRGB">
<feFlood flood-opacity="0" result="BackgroundImageFix"/>
<feColorMatrix in="SourceAlpha" type="matrix" values="0 0 0 0 0 0 0 0 0 0 0 0 0 0 0 0 0 0 127 0" result="hardAlpha"/>
<feOffset dy="4"/>
<feGaussianBlur stdDeviation="2"/>
<feComposite in2="hardAlpha" operator="out"/>
<feColorMatrix type="matrix" values="0 0 0 0 0 0 0 0 0 0 0 0 0 0 0 0 0 0 0.25 0"/>
<feBlend mode="normal" in2="BackgroundImageFix" result="effect1_dropShadow_480_122"/>
<feBlend mode="normal" in="SourceGraphic" in2="effect1_dropShadow_480_122" result="shape"/>
</filter>
</defs>
</svg>
