<svg width="186" height="109" viewBox="0 0 186 109" fill="none" xmlns="http://www.w3.org/2000/svg">
<g filter="url(#filter0_d_263_2)">
<path d="M48.28 86V85.4H49.06C50.14 85.4 51.04 85.24 51.76 84.92C52.52 84.6 53.08 84.12 53.44 83.48C53.8 82.84 53.98 82.04 53.98 81.08V47.84C53.98 46.92 53.8 46.16 53.44 45.56C53.08 44.96 52.52 44.52 51.76 44.24C51.04 43.92 50.14 43.76 49.06 43.76H48.28V43.16H64.42C67.9 43.16 70.78 43.6 73.06 44.48C75.34 45.32 77.04 46.58 78.16 48.26C79.28 49.94 79.84 51.98 79.84 54.38C79.84 56.7 79.36 58.62 78.4 60.14C77.48 61.62 76.28 62.78 74.8 63.62C73.36 64.46 71.86 65.1 70.3 65.54L78.76 78.74C79.6 80.02 80.32 81.1 80.92 81.98C81.56 82.82 82.14 83.5 82.66 84.02C83.18 84.5 83.66 84.86 84.1 85.1C84.58 85.3 85.06 85.4 85.54 85.4H85.72V86H84.88C83 86 81.44 85.94 80.2 85.82C79 85.66 78 85.4 77.2 85.04C76.4 84.68 75.68 84.16 75.04 83.48C74.44 82.76 73.78 81.84 73.06 80.72L63.82 66.02H60.04V81.08C60.04 82.04 60.22 82.84 60.58 83.48C60.94 84.12 61.48 84.6 62.2 84.92C62.96 85.24 63.88 85.4 64.96 85.4H65.74V86H48.28ZM64.24 65.42C66.48 65.42 68.26 65.08 69.58 64.4C70.94 63.68 71.92 62.54 72.52 60.98C73.12 59.42 73.42 57.36 73.42 54.8C73.42 52.16 73.1 50.04 72.46 48.44C71.86 46.8 70.88 45.62 69.52 44.9C68.16 44.14 66.36 43.76 64.12 43.76H60.04V65.42H64.24ZM117.263 86.6C113.023 86.6 109.503 85.68 106.703 83.84C103.903 82 101.803 79.42 100.403 76.1C99.0431 72.78 98.3631 68.9 98.3631 64.46C98.3631 60.02 99.0431 56.16 100.403 52.88C101.803 49.6 103.903 47.06 106.703 45.26C109.543 43.42 113.083 42.5 117.323 42.5C121.363 42.5 124.763 43.42 127.523 45.26C130.323 47.06 132.443 49.62 133.883 52.94C135.363 56.22 136.103 60.08 136.103 64.52C136.103 68.96 135.363 72.84 133.883 76.16C132.443 79.44 130.323 82 127.523 83.84C124.723 85.68 121.303 86.6 117.263 86.6ZM117.263 86C119.383 86 121.203 85.6 122.723 84.8C124.283 83.96 125.543 82.68 126.503 80.96C127.503 79.2 128.243 76.96 128.723 74.24C129.203 71.52 129.443 68.28 129.443 64.52C129.443 60.76 129.203 57.54 128.723 54.86C128.243 52.14 127.503 49.92 126.503 48.2C125.543 46.44 124.303 45.16 122.783 44.36C121.263 43.52 119.443 43.1 117.323 43.1C115.163 43.1 113.303 43.52 111.743 44.36C110.223 45.16 108.963 46.44 107.963 48.2C106.963 49.92 106.223 52.14 105.743 54.86C105.263 57.54 105.023 60.76 105.023 64.52C105.023 68.28 105.263 71.52 105.743 74.24C106.223 76.96 106.943 79.2 107.903 80.96C108.903 82.68 110.163 83.96 111.683 84.8C113.243 85.6 115.103 86 117.263 86Z" fill="white"/>
<path d="M48.28 86H48.08V86.2H48.28V86ZM48.28 85.4V85.2H48.08V85.4H48.28ZM51.76 84.92L51.6824 84.7356L51.6788 84.7372L51.76 84.92ZM53.44 83.48L53.6143 83.5781L53.6143 83.5781L53.44 83.48ZM53.44 45.56L53.6115 45.4571L53.6115 45.4571L53.44 45.56ZM51.76 44.24L51.6786 44.4231L51.6909 44.4277L51.76 44.24ZM48.28 43.76H48.08V43.96H48.28V43.76ZM48.28 43.16V42.96H48.08V43.16H48.28ZM73.06 44.48L72.988 44.6666L72.9909 44.6677L73.06 44.48ZM78.16 48.26L77.9936 48.3709L78.16 48.26ZM78.4 60.14L78.2309 60.0332L78.2301 60.0344L78.4 60.14ZM74.8 63.62L74.7013 63.446L74.6992 63.4472L74.8 63.62ZM70.3 65.54L70.2457 65.3475L69.986 65.4208L70.1316 65.6479L70.3 65.54ZM78.76 78.74L78.5916 78.8479L78.5928 78.8497L78.76 78.74ZM80.92 81.98L80.7545 82.0928L80.7609 82.1012L80.92 81.98ZM82.66 84.02L82.5185 84.1615L82.5243 84.167L82.66 84.02ZM84.1 85.1L84.0042 85.2756L84.0134 85.2806L84.0231 85.2846L84.1 85.1ZM85.72 85.4H85.92V85.2H85.72V85.4ZM85.72 86V86.2H85.92V86H85.72ZM80.2 85.82L80.1736 86.0184L80.1807 86.0191L80.2 85.82ZM77.2 85.04L77.2821 84.8576L77.2821 84.8576L77.2 85.04ZM75.04 83.48L74.8861 83.6083L74.8944 83.6171L75.04 83.48ZM73.06 80.72L72.8907 80.8264L72.8918 80.8282L73.06 80.72ZM63.82 66.02L63.9893 65.9136L63.9305 65.82H63.82V66.02ZM60.04 66.02V65.82H59.84V66.02H60.04ZM60.58 83.48L60.7543 83.3819L60.7543 83.3819L60.58 83.48ZM62.2 84.92L62.1188 85.1028L62.1224 85.1043L62.2 84.92ZM65.74 85.4H65.94V85.2H65.74V85.4ZM65.74 86V86.2H65.94V86H65.74ZM69.58 64.4L69.6716 64.5778L69.6736 64.5768L69.58 64.4ZM72.52 60.98L72.7067 61.0518L72.7067 61.0518L72.52 60.98ZM72.46 48.44L72.2721 48.5087L72.2743 48.5143L72.46 48.44ZM69.52 44.9L69.4224 45.0746L69.4264 45.0768L69.52 44.9ZM60.04 43.76V43.56H59.84V43.76H60.04ZM60.04 65.42H59.84V65.62H60.04V65.42ZM48.48 86V85.4H48.08V86H48.48ZM48.28 85.6H49.06V85.2H48.28V85.6ZM49.06 85.6C50.1582 85.6 51.088 85.4375 51.8412 85.1028L51.6788 84.7372C50.992 85.0425 50.1218 85.2 49.06 85.2V85.6ZM51.8376 85.1043C52.6332 84.7693 53.2299 84.2615 53.6143 83.5781L53.2657 83.3819C52.9301 83.9785 52.4068 84.4307 51.6824 84.7357L51.8376 85.1043ZM53.6143 83.5781C53.9956 82.9003 54.18 82.0641 54.18 81.08H53.78C53.78 82.0159 53.6044 82.7797 53.2657 83.3819L53.6143 83.5781ZM54.18 81.08V47.84H53.78V81.08H54.18ZM54.18 47.84C54.18 46.8949 53.9951 46.0965 53.6115 45.4571L53.2685 45.6629C53.6049 46.2235 53.78 46.9451 53.78 47.84H54.18ZM53.6115 45.4571C53.2244 44.812 52.6249 44.3455 51.8291 44.0523L51.6909 44.4277C52.4151 44.6945 52.9356 45.108 53.2685 45.6629L53.6115 45.4571ZM51.8412 44.0572C51.088 43.7225 50.1582 43.56 49.06 43.56V43.96C50.1218 43.96 50.992 44.1175 51.6788 44.4228L51.8412 44.0572ZM49.06 43.56H48.28V43.96H49.06V43.56ZM48.48 43.76V43.16H48.08V43.76H48.48ZM48.28 43.36H64.42V42.96H48.28V43.36ZM64.42 43.36C67.885 43.36 70.7385 43.7984 72.988 44.6666L73.132 44.2934C70.8215 43.4016 67.915 42.96 64.42 42.96V43.36ZM72.9909 44.6677C75.2394 45.4961 76.9015 46.7329 77.9936 48.3709L78.3264 48.1491C77.1785 46.4271 75.4406 45.1439 73.1291 44.2923L72.9909 44.6677ZM77.9936 48.3709C79.0878 50.0123 79.64 52.0119 79.64 54.38H80.04C80.04 51.9481 79.4722 49.8677 78.3264 48.1491L77.9936 48.3709ZM79.64 54.38C79.64 56.673 79.1656 58.5532 78.2309 60.0332L78.5691 60.2468C79.5544 58.6868 80.04 56.727 80.04 54.38H79.64ZM78.2301 60.0344C77.3273 61.4868 76.1515 62.623 74.7013 63.4461L74.8987 63.7939C76.4085 62.937 77.6327 61.7532 78.5699 60.2456L78.2301 60.0344ZM74.6992 63.4472C73.2734 64.279 71.789 64.9122 70.2457 65.3475L70.3543 65.7325C71.931 65.2878 73.4466 64.641 74.9008 63.7928L74.6992 63.4472ZM70.1316 65.6479L78.5916 78.8479L78.9284 78.6321L70.4684 65.4321L70.1316 65.6479ZM78.5928 78.8497C79.4332 80.1303 80.1539 81.2114 80.7548 82.0927L81.0852 81.8673C80.4861 80.9886 79.7668 79.9097 78.9272 78.6303L78.5928 78.8497ZM80.7609 82.1012C81.4042 82.9455 81.9902 83.633 82.5186 84.1614L82.8014 83.8786C82.2898 83.367 81.7158 82.6945 81.0791 81.8588L80.7609 82.1012ZM82.5243 84.167C83.0519 84.6539 83.5453 85.0252 84.0042 85.2756L84.1958 84.9244C83.7747 84.6948 83.3081 84.3461 82.7957 83.873L82.5243 84.167ZM84.0231 85.2846C84.5254 85.4939 85.0315 85.6 85.54 85.6V85.2C85.0885 85.2 84.6346 85.1061 84.1769 84.9154L84.0231 85.2846ZM85.54 85.6H85.72V85.2H85.54V85.6ZM85.52 85.4V86H85.92V85.4H85.52ZM85.72 85.8H84.88V86.2H85.72V85.8ZM84.88 85.8C83.0036 85.8 81.4505 85.7401 80.2193 85.6209L80.1807 86.0191C81.4295 86.1399 82.9964 86.2 84.88 86.2V85.8ZM80.2264 85.6218C79.0389 85.4634 78.0591 85.2073 77.2821 84.8576L77.1179 85.2224C77.9409 85.5927 78.9611 85.8566 80.1736 86.0182L80.2264 85.6218ZM77.2821 84.8576C76.5075 84.5091 75.8088 84.005 75.1856 83.3429L74.8944 83.6171C75.5512 84.315 76.2925 84.8509 77.1179 85.2224L77.2821 84.8576ZM75.1936 83.352C74.6006 82.6403 73.9455 81.7275 73.2282 80.6118L72.8918 80.8282C73.6145 81.9525 74.2794 82.8797 74.8864 83.608L75.1936 83.352ZM73.2293 80.6136L63.9893 65.9136L63.6507 66.1264L72.8907 80.8264L73.2293 80.6136ZM63.82 65.82H60.04V66.22H63.82V65.82ZM59.84 66.02V81.08H60.24V66.02H59.84ZM59.84 81.08C59.84 82.0641 60.0244 82.9003 60.4057 83.5781L60.7543 83.3819C60.4156 82.7797 60.24 82.0159 60.24 81.08H59.84ZM60.4057 83.5781C60.7884 84.2584 61.3625 84.7666 62.1188 85.1028L62.2812 84.7372C61.5975 84.4334 61.0916 83.9816 60.7543 83.3819L60.4057 83.5781ZM62.1224 85.1043C62.9133 85.4373 63.8612 85.6 64.96 85.6V85.2C63.8988 85.2 63.0067 85.0427 62.2776 84.7357L62.1224 85.1043ZM64.96 85.6H65.74V85.2H64.96V85.6ZM65.54 85.4V86H65.94V85.4H65.54ZM65.74 85.8H48.28V86.2H65.74V85.8ZM64.24 65.62C66.497 65.62 68.3125 65.2779 69.6716 64.5778L69.4884 64.2222C68.2075 64.8821 66.463 65.22 64.24 65.22V65.62ZM69.6736 64.5768C71.0801 63.8321 72.0909 62.6527 72.7067 61.0518L72.3333 60.9082C71.7491 62.4273 70.7999 63.5279 69.4864 64.2232L69.6736 64.5768ZM72.7067 61.0518C73.3189 59.4601 73.62 57.3729 73.62 54.8H73.22C73.22 57.3471 72.9211 59.3799 72.3333 60.9082L72.7067 61.0518ZM73.62 54.8C73.62 52.1467 73.2988 49.9985 72.6457 48.3657L72.2743 48.5143C72.9012 50.0815 73.22 52.1733 73.22 54.8H73.62ZM72.6478 48.3713C72.0333 46.6916 71.0232 45.4695 69.6136 44.7232L69.4264 45.0768C70.7368 45.7705 71.6867 46.9084 72.2722 48.5087L72.6478 48.3713ZM69.6176 44.7254C68.2175 43.943 66.3801 43.56 64.12 43.56V43.96C66.3399 43.96 68.1025 44.337 69.4224 45.0746L69.6176 44.7254ZM64.12 43.56H60.04V43.96H64.12V43.56ZM59.84 43.76V65.42H60.24V43.76H59.84ZM60.04 65.62H64.24V65.22H60.04V65.62ZM106.703 83.84L106.813 83.6729L106.813 83.6729L106.703 83.84ZM100.403 76.1L100.218 76.1758L100.219 76.1777L100.403 76.1ZM100.403 52.88L100.219 52.8015L100.218 52.8034L100.403 52.88ZM106.703 45.26L106.811 45.4282L106.812 45.4278L106.703 45.26ZM127.523 45.26L127.412 45.4264L127.415 45.4282L127.523 45.26ZM133.883 52.94L133.7 53.0196L133.701 53.0223L133.883 52.94ZM133.883 76.16L133.7 76.0786L133.7 76.0796L133.883 76.16ZM127.523 83.84L127.633 84.0071L127.633 84.0071L127.523 83.84ZM122.723 84.8L122.816 84.977L122.818 84.9761L122.723 84.8ZM126.503 80.96L126.329 80.8612L126.328 80.8625L126.503 80.96ZM128.723 74.24L128.92 74.2748L128.92 74.2748L128.723 74.24ZM128.723 54.86L128.526 54.8948L128.526 54.8953L128.723 54.86ZM126.503 48.2L126.327 48.2958L126.33 48.3005L126.503 48.2ZM122.783 44.36L122.686 44.5351L122.69 44.537L122.783 44.36ZM111.743 44.36L111.836 44.537L111.838 44.5361L111.743 44.36ZM107.963 48.2L108.136 48.3005L108.137 48.2988L107.963 48.2ZM105.743 54.86L105.94 54.8953L105.94 54.8948L105.743 54.86ZM105.743 74.24L105.546 74.2748L105.546 74.2748L105.743 74.24ZM107.903 80.96L107.727 81.0558L107.73 81.0605L107.903 80.96ZM111.683 84.8L111.586 84.9751L111.592 84.978L111.683 84.8ZM117.263 86.4C113.052 86.4 109.573 85.4864 106.813 83.6729L106.593 84.0071C109.434 85.8736 112.994 86.8 117.263 86.8V86.4ZM106.813 83.6729C104.049 81.8563 101.973 79.3086 100.587 76.0223L100.219 76.1777C101.633 79.5314 103.758 82.1437 106.593 84.0071L106.813 83.6729ZM100.588 76.0242C99.2401 72.7332 98.5631 68.88 98.5631 64.46H98.1631C98.1631 68.92 98.8462 72.8268 100.218 76.1758L100.588 76.0242ZM98.5631 64.46C98.5631 60.0399 99.2401 56.2071 100.588 52.9566L100.218 52.8034C98.8461 56.1129 98.1631 60.0001 98.1631 64.46H98.5631ZM100.587 52.9585C101.973 49.7126 104.047 47.205 106.811 45.4282L106.595 45.0918C103.759 46.915 101.634 49.4874 100.219 52.8015L100.587 52.9585ZM106.812 45.4278C109.612 43.6136 113.112 42.7 117.323 42.7V42.3C113.054 42.3 109.474 43.2264 106.594 45.0921L106.812 45.4278ZM117.323 42.7C121.332 42.7 124.692 43.6127 127.412 45.4264L127.634 45.0936C124.835 43.2273 121.394 42.3 117.323 42.3V42.7ZM127.415 45.4282C130.179 47.2049 132.274 49.7326 133.7 53.0196L134.067 52.8604C132.612 49.5074 130.468 46.9151 127.631 45.0918L127.415 45.4282ZM133.701 53.0223C135.167 56.2711 135.903 60.1019 135.903 64.52H136.303C136.303 60.0581 135.559 56.1689 134.065 52.8577L133.701 53.0223ZM135.903 64.52C135.903 68.938 135.167 72.7892 133.7 76.0786L134.066 76.2414C135.559 72.8908 136.303 68.982 136.303 64.52H135.903ZM133.7 76.0796C132.274 79.3268 130.179 81.8556 127.413 83.6729L127.633 84.0071C130.468 82.1444 132.612 79.5532 134.066 76.2404L133.7 76.0796ZM127.413 83.6729C124.652 85.4874 121.272 86.4 117.263 86.4V86.8C121.334 86.8 124.794 85.8726 127.633 84.0071L127.413 83.6729ZM117.263 86.2C119.408 86.2 121.262 85.7952 122.816 84.977L122.63 84.623C121.145 85.4048 119.358 85.8 117.263 85.8V86.2ZM122.818 84.9761C124.415 84.116 125.701 82.8069 126.678 81.0575L126.328 80.8625C125.385 82.5531 124.151 83.804 122.628 84.6239L122.818 84.9761ZM126.677 81.0588C127.692 79.2731 128.437 77.0096 128.92 74.2748L128.526 74.2052C128.049 76.9104 127.315 79.1268 126.329 80.8612L126.677 81.0588ZM128.92 74.2748C129.403 71.54 129.643 68.2878 129.643 64.52H129.243C129.243 68.2722 129.004 71.5 128.526 74.2052L128.92 74.2748ZM129.643 64.52C129.643 60.7523 129.403 57.5198 128.92 54.8247L128.526 54.8953C129.004 57.5602 129.243 60.7677 129.243 64.52H129.643ZM128.92 54.8252C128.437 52.0904 127.691 49.846 126.676 48.0995L126.33 48.3005C127.315 49.994 128.049 52.1896 128.526 54.8948L128.92 54.8252ZM126.679 48.1042C125.703 46.3155 124.437 45.0043 122.876 44.183L122.69 44.537C124.17 45.3157 125.383 46.5645 126.328 48.2958L126.679 48.1042ZM122.88 44.185C121.324 43.3253 119.47 42.9 117.323 42.9V43.3C119.417 43.3 121.202 43.7147 122.686 44.535L122.88 44.185ZM117.323 42.9C115.137 42.9 113.243 43.3251 111.648 44.1839L111.838 44.5361C113.363 43.7149 115.189 43.3 117.323 43.3V42.9ZM111.65 44.183C110.09 45.0038 108.805 46.314 107.789 48.1012L108.137 48.2988C109.122 46.566 110.356 45.3162 111.836 44.537L111.65 44.183ZM107.79 48.0995C106.775 49.846 106.029 52.0904 105.546 54.8252L105.94 54.8948C106.417 52.1896 107.151 49.994 108.136 48.3005L107.79 48.0995ZM105.546 54.8247C105.064 57.5198 104.823 60.7523 104.823 64.52H105.223C105.223 60.7677 105.463 57.5602 105.94 54.8953L105.546 54.8247ZM104.823 64.52C104.823 68.2878 105.064 71.54 105.546 74.2748L105.94 74.2052C105.463 71.5 105.223 68.2722 105.223 64.52H104.823ZM105.546 74.2748C106.029 77.0086 106.754 79.271 107.728 81.0558L108.079 80.8642C107.132 79.129 106.418 76.9114 105.94 74.2052L105.546 74.2748ZM107.73 81.0605C108.746 82.8072 110.03 84.1151 111.586 84.975L111.78 84.625C110.296 83.8049 109.061 82.5528 108.076 80.8595L107.73 81.0605ZM111.592 84.978C113.186 85.7954 115.079 86.2 117.263 86.2V85.8C115.128 85.8 113.3 85.4046 111.774 84.622L111.592 84.978Z" fill="black"/>
</g>
<g filter="url(#filter1_d_263_2)">
<path d="M32.08 86.8C25.8933 86.8 20.7467 85.5733 16.64 83.12C12.5867 80.6667 9.54667 77.2533 7.52 72.88C5.54667 68.4533 4.56 63.28 4.56 57.36C4.56 51.6 5.54667 46.5333 7.52 42.16C9.49333 37.7333 12.48 34.2933 16.48 31.84C20.5333 29.3333 25.6267 28.08 31.76 28.08C35.7067 28.08 39.04 28.4533 41.76 29.2C44.5333 29.9467 46.64 30.9867 48.08 32.32C49.52 33.6 50.24 35.0933 50.24 36.8C50.24 38.6133 49.6533 40 48.48 40.96C47.36 41.8667 45.4667 42.4267 42.8 42.64C42.8 39.3333 42.4 36.6667 41.6 34.64C40.8533 32.6133 39.6533 31.1467 38 30.24C36.3467 29.3333 34.16 28.88 31.44 28.88C27.12 28.88 23.6267 29.84 20.96 31.76C18.3467 33.6267 16.4267 36.6667 15.2 40.88C14.0267 45.04 13.44 50.5333 13.44 57.36C13.44 64.24 14.1067 69.7867 15.44 74C16.7733 78.16 18.9067 81.2 21.84 83.12C24.7733 85.04 28.6133 86 33.36 86C34.9067 86 36.4 85.8933 37.84 85.68C39.28 85.4133 40.56 85.12 41.68 84.8V65.84C41.68 64.6133 41.44 63.6 40.96 62.8C40.48 62 39.7333 61.4133 38.72 61.04C37.76 60.6133 36.56 60.4 35.12 60.4H34.8V59.6H55.6V60.4H55.28C53.8933 60.4 52.8 60.6133 52 61.04C51.2 61.4667 50.6133 62.1067 50.24 62.96C49.92 63.8133 49.76 64.88 49.76 66.16V83.12C47.0933 84.3467 44.3467 85.28 41.52 85.92C38.6933 86.5067 35.5467 86.8 32.08 86.8Z" fill="white"/>
<path d="M16.64 83.12L16.5364 83.2911L16.5374 83.2917L16.64 83.12ZM7.52 72.88L7.33731 72.9614L7.33854 72.9641L7.52 72.88ZM7.52 42.16L7.7023 42.2423L7.70267 42.2414L7.52 42.16ZM16.48 31.84L16.5846 32.0105L16.5852 32.0101L16.48 31.84ZM41.76 29.2L41.7071 29.3929L41.708 29.3931L41.76 29.2ZM48.08 32.32L47.9441 32.4668L47.9471 32.4695L48.08 32.32ZM48.48 40.96L48.6058 41.1154L48.6066 41.1148L48.48 40.96ZM42.8 42.64H42.6V42.8566L42.816 42.8394L42.8 42.64ZM41.6 34.64L41.4123 34.7092L41.414 34.7134L41.6 34.64ZM38 30.24L37.9038 30.4154L37.9038 30.4154L38 30.24ZM20.96 31.76L21.0763 31.9227L21.0769 31.9223L20.96 31.76ZM15.2 40.88L15.008 40.8241L15.0075 40.8257L15.2 40.88ZM15.44 74L15.2493 74.0603L15.2495 74.061L15.44 74ZM21.84 83.12L21.7305 83.2873L21.7305 83.2873L21.84 83.12ZM37.84 85.68L37.8693 85.878L37.8764 85.8767L37.84 85.68ZM41.68 84.8L41.7349 84.9923L41.88 84.9509V84.8H41.68ZM40.96 62.8L41.1315 62.6971L41.1315 62.6971L40.96 62.8ZM38.72 61.04L38.6386 61.2232L38.6509 61.2277L38.72 61.04ZM34.8 60.4H34.6V60.6H34.8V60.4ZM34.8 59.6V59.4H34.6V59.6H34.8ZM55.6 59.6H55.8V59.4H55.6V59.6ZM55.6 60.4V60.6H55.8V60.4H55.6ZM52 61.04L52.0941 61.2165L52.0941 61.2165L52 61.04ZM50.24 62.96L50.0565 62.8797L50.0527 62.8898L50.24 62.96ZM49.76 83.12L49.8436 83.3017L49.96 83.2481V83.12H49.76ZM41.52 85.92L41.5607 86.1159L41.5642 86.1151L41.52 85.92ZM32.08 86.6C25.9191 86.6 20.8104 85.3784 16.7426 82.9483L16.5374 83.2917C20.6829 85.7682 25.8676 87 32.08 87V86.6ZM16.7436 82.9489C12.7249 80.5165 9.71171 77.1338 7.70146 72.7959L7.33854 72.9641C9.38163 77.3729 12.4484 80.8168 16.5364 83.2911L16.7436 82.9489ZM7.70267 72.7986C5.743 68.4025 4.76 63.258 4.76 57.36H4.36C4.36 63.302 5.35033 68.5041 7.33733 72.9614L7.70267 72.7986ZM4.76 57.36C4.76 51.6228 5.74273 46.5851 7.7023 42.2423L7.3377 42.0777C5.3506 46.4816 4.36 51.5772 4.36 57.36H4.76ZM7.70267 42.2414C9.66013 37.8504 12.6202 34.442 16.5846 32.0105L16.3754 31.6695C12.3398 34.1447 9.32653 37.6163 7.33733 42.0786L7.70267 42.2414ZM16.5852 32.0101C20.599 29.5278 25.6533 28.28 31.76 28.28V27.88C25.6 27.88 20.4676 29.1388 16.3748 31.6699L16.5852 32.0101ZM31.76 28.28C35.6953 28.28 39.0096 28.6524 41.7071 29.3929L41.8129 29.0071C39.0704 28.2543 35.718 27.88 31.76 27.88V28.28ZM41.708 29.3931C44.4635 30.135 46.5364 31.1633 47.9441 32.4668L48.2159 32.1732C46.7436 30.81 44.6032 29.7583 41.812 29.0069L41.708 29.3931ZM47.9471 32.4695C49.3505 33.717 50.04 35.1582 50.04 36.8H50.44C50.44 35.0285 49.6895 33.483 48.2129 32.1705L47.9471 32.4695ZM50.04 36.8C50.04 38.5664 49.471 39.8907 48.3534 40.8052L48.6066 41.1148C49.8356 40.1093 50.44 38.6603 50.44 36.8H50.04ZM48.3542 40.8045C47.2826 41.672 45.4401 42.2282 42.7841 42.4406L42.816 42.8394C45.4933 42.6252 47.4374 42.0613 48.6058 41.1154L48.3542 40.8045ZM43 42.64C43 39.3199 42.5988 36.6255 41.786 34.5666L41.414 34.7134C42.2012 36.7079 42.6 39.3468 42.6 42.64H43ZM41.7877 34.5709C41.0269 32.5059 39.7979 30.9979 38.0962 30.0646L37.9038 30.4154C39.5087 31.2955 40.6798 32.7208 41.4123 34.7091L41.7877 34.5709ZM38.0962 30.0646C36.4032 29.1362 34.1797 28.68 31.44 28.68V29.08C34.1403 29.08 36.2902 29.5304 37.9038 30.4154L38.0962 30.0646ZM31.44 28.68C27.0912 28.68 23.5531 29.6465 20.8431 31.5977L21.0769 31.9223C23.7002 30.0335 27.1488 29.08 31.44 29.08V28.68ZM20.8438 31.5973C18.1825 33.4981 16.2426 36.5833 15.008 40.8241L15.392 40.9359C16.6107 36.75 18.5108 33.7552 21.0762 31.9227L20.8438 31.5973ZM15.0075 40.8257C13.8272 45.0105 13.24 50.5243 13.24 57.36H13.64C13.64 50.5424 14.2262 45.0695 15.3925 40.9343L15.0075 40.8257ZM13.24 57.36C13.24 64.2504 13.9074 69.8198 15.2493 74.0603L15.6307 73.9397C14.306 69.7535 13.64 64.2296 13.64 57.36H13.24ZM15.2495 74.061C16.5933 78.2537 18.7501 81.3366 21.7305 83.2873L21.9495 82.9527C19.0632 81.0634 16.9533 78.0663 15.6305 73.939L15.2495 74.061ZM21.7305 83.2873C24.706 85.235 28.5878 86.2 33.36 86.2V85.8C28.6388 85.8 24.8407 84.845 21.9495 82.9527L21.7305 83.2873ZM33.36 86.2C34.9159 86.2 36.419 86.0927 37.8693 85.8778L37.8107 85.4822C36.381 85.694 34.8975 85.8 33.36 85.8V86.2ZM37.8764 85.8767C39.3212 85.6091 40.6075 85.3144 41.7349 84.9923L41.6251 84.6077C40.5125 84.9256 39.2388 85.2176 37.8036 85.4833L37.8764 85.8767ZM41.88 84.8V65.84H41.48V84.8H41.88ZM41.88 65.84C41.88 64.5882 41.6351 63.5365 41.1315 62.6971L40.7885 62.9029C41.2449 63.6635 41.48 64.6385 41.48 65.84H41.88ZM41.1315 62.6971C40.6244 61.852 39.8382 61.2388 38.7891 60.8523L38.6509 61.2277C39.6285 61.5878 40.3356 62.148 40.7885 62.9029L41.1315 62.6971ZM38.8012 60.8572C37.808 60.4158 36.5782 60.2 35.12 60.2V60.6C36.5418 60.6 37.712 60.8108 38.6388 61.2228L38.8012 60.8572ZM35.12 60.2H34.8V60.6H35.12V60.2ZM35 60.4V59.6H34.6V60.4H35ZM34.8 59.8H55.6V59.4H34.8V59.8ZM55.4 59.6V60.4H55.8V59.6H55.4ZM55.6 60.2H55.28V60.6H55.6V60.2ZM55.28 60.2C53.8764 60.2 52.7462 60.4154 51.9059 60.8635L52.0941 61.2165C52.8538 60.8113 53.9103 60.6 55.28 60.6V60.2ZM51.9059 60.8635C51.065 61.312 50.4476 61.9865 50.0568 62.8798L50.4232 63.0402C50.7791 62.2268 51.335 61.6214 52.0941 61.2165L51.9059 60.8635ZM50.0527 62.8898C49.7217 63.7726 49.56 64.865 49.56 66.16H49.96C49.96 64.895 50.1183 63.854 50.4273 63.0302L50.0527 62.8898ZM49.56 66.16V83.12H49.96V66.16H49.56ZM49.6764 82.9383C47.0222 84.1592 44.2888 85.088 41.4758 85.7249L41.5642 86.1151C44.4046 85.472 47.1644 84.5341 49.8436 83.3017L49.6764 82.9383ZM41.4794 85.7242C38.6684 86.3076 35.5356 86.6 32.08 86.6V87C35.5577 87 38.7183 86.7058 41.5606 86.1158L41.4794 85.7242Z" fill="black"/>
</g>
<g filter="url(#filter2_d_263_2)">
<path d="M153.92 86.8C160.107 86.8 165.253 85.5733 169.36 83.12C173.413 80.6667 176.453 77.2533 178.48 72.88C180.453 68.4533 181.44 63.28 181.44 57.36C181.44 51.6 180.453 46.5333 178.48 42.16C176.507 37.7333 173.52 34.2933 169.52 31.84C165.467 29.3333 160.373 28.08 154.24 28.08C150.293 28.08 146.96 28.4533 144.24 29.2C141.467 29.9467 139.36 30.9867 137.92 32.32C136.48 33.6 135.76 35.0933 135.76 36.8C135.76 38.6133 136.347 40 137.52 40.96C138.64 41.8667 140.533 42.4267 143.2 42.64C143.2 39.3333 143.6 36.6667 144.4 34.64C145.147 32.6133 146.347 31.1467 148 30.24C149.653 29.3333 151.84 28.88 154.56 28.88C158.88 28.88 162.373 29.84 165.04 31.76C167.653 33.6267 169.573 36.6667 170.8 40.88C171.973 45.04 172.56 50.5333 172.56 57.36C172.56 64.24 171.893 69.7867 170.56 74C169.227 78.16 167.093 81.2 164.16 83.12C161.227 85.04 157.387 86 152.64 86C151.093 86 149.6 85.8933 148.16 85.68C146.72 85.4133 145.44 85.12 144.32 84.8V65.84C144.32 64.6133 144.56 63.6 145.04 62.8C145.52 62 146.267 61.4133 147.28 61.04C148.24 60.6133 149.44 60.4 150.88 60.4H151.2V59.6H130.4V60.4H130.72C132.107 60.4 133.2 60.6133 134 61.04C134.8 61.4667 135.387 62.1067 135.76 62.96C136.08 63.8133 136.24 64.88 136.24 66.16V83.12C138.907 84.3467 141.653 85.28 144.48 85.92C147.307 86.5067 150.453 86.8 153.92 86.8Z" fill="white"/>
<path d="M169.36 83.12L169.464 83.2911L169.463 83.2917L169.36 83.12ZM178.48 72.88L178.663 72.9614L178.661 72.9641L178.48 72.88ZM178.48 42.16L178.298 42.2423L178.297 42.2414L178.48 42.16ZM169.52 31.84L169.415 32.0105L169.415 32.0101L169.52 31.84ZM144.24 29.2L144.293 29.3929L144.292 29.3931L144.24 29.2ZM137.92 32.32L138.056 32.4668L138.053 32.4695L137.92 32.32ZM137.52 40.96L137.394 41.1154L137.393 41.1148L137.52 40.96ZM143.2 42.64H143.4V42.8566L143.184 42.8394L143.2 42.64ZM144.4 34.64L144.588 34.7092L144.586 34.7134L144.4 34.64ZM148 30.24L148.096 30.4154L148.096 30.4154L148 30.24ZM165.04 31.76L164.924 31.9227L164.923 31.9223L165.04 31.76ZM170.8 40.88L170.992 40.8241L170.992 40.8257L170.8 40.88ZM170.56 74L170.751 74.0603L170.75 74.061L170.56 74ZM164.16 83.12L164.27 83.2873L164.27 83.2873L164.16 83.12ZM148.16 85.68L148.131 85.878L148.124 85.8767L148.16 85.68ZM144.32 84.8L144.265 84.9923L144.12 84.9509V84.8H144.32ZM145.04 62.8L144.868 62.6971L144.868 62.6971L145.04 62.8ZM147.28 61.04L147.361 61.2232L147.349 61.2277L147.28 61.04ZM151.2 60.4H151.4V60.6H151.2V60.4ZM151.2 59.6V59.4H151.4V59.6H151.2ZM130.4 59.6H130.2V59.4H130.4V59.6ZM130.4 60.4V60.6H130.2V60.4H130.4ZM134 61.04L133.906 61.2165L133.906 61.2165L134 61.04ZM135.76 62.96L135.943 62.8797L135.947 62.8898L135.76 62.96ZM136.24 83.12L136.156 83.3017L136.04 83.2481V83.12H136.24ZM144.48 85.92L144.439 86.1159L144.436 86.1151L144.48 85.92ZM153.92 86.6C160.081 86.6 165.19 85.3784 169.257 82.9483L169.463 83.2917C165.317 85.7682 160.132 87 153.92 87V86.6ZM169.256 82.9489C173.275 80.5165 176.288 77.1338 178.299 72.7959L178.661 72.9641C176.618 77.3729 173.552 80.8168 169.464 83.2911L169.256 82.9489ZM178.297 72.7986C180.257 68.4025 181.24 63.258 181.24 57.36H181.64C181.64 63.302 180.65 68.5041 178.663 72.9614L178.297 72.7986ZM181.24 57.36C181.24 51.6228 180.257 46.5851 178.298 42.2423L178.662 42.0777C180.649 46.4816 181.64 51.5772 181.64 57.36H181.24ZM178.297 42.2414C176.34 37.8504 173.38 34.442 169.415 32.0105L169.625 31.6695C173.66 34.1447 176.673 37.6163 178.663 42.0786L178.297 42.2414ZM169.415 32.0101C165.401 29.5278 160.347 28.28 154.24 28.28V27.88C160.4 27.88 165.532 29.1388 169.625 31.6699L169.415 32.0101ZM154.24 28.28C150.305 28.28 146.99 28.6524 144.293 29.3929L144.187 29.0071C146.93 28.2543 150.282 27.88 154.24 27.88V28.28ZM144.292 29.3931C141.537 30.135 139.464 31.1633 138.056 32.4668L137.784 32.1732C139.256 30.81 141.397 29.7583 144.188 29.0069L144.292 29.3931ZM138.053 32.4695C136.649 33.717 135.96 35.1582 135.96 36.8H135.56C135.56 35.0285 136.311 33.483 137.787 32.1705L138.053 32.4695ZM135.96 36.8C135.96 38.5664 136.529 39.8907 137.647 40.8052L137.393 41.1148C136.164 40.1093 135.56 38.6603 135.56 36.8H135.96ZM137.646 40.8045C138.717 41.672 140.56 42.2282 143.216 42.4406L143.184 42.8394C140.507 42.6252 138.563 42.0613 137.394 41.1154L137.646 40.8045ZM143 42.64C143 39.3199 143.401 36.6255 144.214 34.5666L144.586 34.7134C143.799 36.7079 143.4 39.3468 143.4 42.64H143ZM144.212 34.5709C144.973 32.5059 146.202 30.9979 147.904 30.0646L148.096 30.4154C146.491 31.2955 145.32 32.7208 144.588 34.7091L144.212 34.5709ZM147.904 30.0646C149.597 29.1362 151.82 28.68 154.56 28.68V29.08C151.86 29.08 149.71 29.5304 148.096 30.4154L147.904 30.0646ZM154.56 28.68C158.909 28.68 162.447 29.6465 165.157 31.5977L164.923 31.9223C162.3 30.0335 158.851 29.08 154.56 29.08V28.68ZM165.156 31.5973C167.817 33.4981 169.757 36.5833 170.992 40.8241L170.608 40.9359C169.389 36.75 167.489 33.7552 164.924 31.9227L165.156 31.5973ZM170.992 40.8257C172.173 45.0105 172.76 50.5243 172.76 57.36H172.36C172.36 50.5424 171.774 45.0695 170.608 40.9343L170.992 40.8257ZM172.76 57.36C172.76 64.2504 172.093 69.8198 170.751 74.0603L170.369 73.9397C171.694 69.7535 172.36 64.2296 172.36 57.36H172.76ZM170.75 74.061C169.407 78.2537 167.25 81.3366 164.27 83.2873L164.05 82.9527C166.937 81.0634 169.047 78.0663 170.37 73.939L170.75 74.061ZM164.27 83.2873C161.294 85.235 157.412 86.2 152.64 86.2V85.8C157.361 85.8 161.159 84.845 164.05 82.9527L164.27 83.2873ZM152.64 86.2C151.084 86.2 149.581 86.0927 148.131 85.8778L148.189 85.4822C149.619 85.694 151.103 85.8 152.64 85.8V86.2ZM148.124 85.8767C146.679 85.6091 145.392 85.3144 144.265 84.9923L144.375 84.6077C145.488 84.9256 146.761 85.2176 148.196 85.4833L148.124 85.8767ZM144.12 84.8V65.84H144.52V84.8H144.12ZM144.12 65.84C144.12 64.5882 144.365 63.5365 144.868 62.6971L145.211 62.9029C144.755 63.6635 144.52 64.6385 144.52 65.84H144.12ZM144.868 62.6971C145.376 61.852 146.162 61.2388 147.211 60.8523L147.349 61.2277C146.372 61.5878 145.664 62.148 145.211 62.9029L144.868 62.6971ZM147.199 60.8572C148.192 60.4158 149.422 60.2 150.88 60.2V60.6C149.458 60.6 148.288 60.8108 147.361 61.2228L147.199 60.8572ZM150.88 60.2H151.2V60.6H150.88V60.2ZM151 60.4V59.6H151.4V60.4H151ZM151.2 59.8H130.4V59.4H151.2V59.8ZM130.6 59.6V60.4H130.2V59.6H130.6ZM130.4 60.2H130.72V60.6H130.4V60.2ZM130.72 60.2C132.124 60.2 133.254 60.4154 134.094 60.8635L133.906 61.2165C133.146 60.8113 132.09 60.6 130.72 60.6V60.2ZM134.094 60.8635C134.935 61.312 135.552 61.9865 135.943 62.8798L135.577 63.0402C135.221 62.2268 134.665 61.6214 133.906 61.2165L134.094 60.8635ZM135.947 62.8898C136.278 63.7726 136.44 64.865 136.44 66.16H136.04C136.04 64.895 135.882 63.854 135.573 63.0302L135.947 62.8898ZM136.44 66.16V83.12H136.04V66.16H136.44ZM136.324 82.9383C138.978 84.1592 141.711 85.088 144.524 85.7249L144.436 86.1151C141.595 85.472 138.836 84.5341 136.156 83.3017L136.324 82.9383ZM144.521 85.7242C147.332 86.3076 150.464 86.6 153.92 86.6V87C150.442 87 147.282 86.7058 144.439 86.1158L144.521 85.7242Z" fill="black"/>
</g>
<defs>
<filter id="filter0_d_263_2" x="44.28" y="42.5" width="95.8231" height="52.1" filterUnits="userSpaceOnUse" color-interpolation-filters="sRGB">
<feFlood flood-opacity="0" result="BackgroundImageFix"/>
<feColorMatrix in="SourceAlpha" type="matrix" values="0 0 0 0 0 0 0 0 0 0 0 0 0 0 0 0 0 0 127 0" result="hardAlpha"/>
<feOffset dy="4"/>
<feGaussianBlur stdDeviation="2"/>
<feComposite in2="hardAlpha" operator="out"/>
<feColorMatrix type="matrix" values="0 0 0 0 0 0 0 0 0 0 0 0 0 0 0 0 0 0 0.25 0"/>
<feBlend mode="normal" in2="BackgroundImageFix" result="effect1_dropShadow_263_2"/>
<feBlend mode="normal" in="SourceGraphic" in2="effect1_dropShadow_263_2" result="shape"/>
</filter>
<filter id="filter1_d_263_2" x="0.559998" y="28.08" width="59.04" height="66.72" filterUnits="userSpaceOnUse" color-interpolation-filters="sRGB">
<feFlood flood-opacity="0" result="BackgroundImageFix"/>
<feColorMatrix in="SourceAlpha" type="matrix" values="0 0 0 0 0 0 0 0 0 0 0 0 0 0 0 0 0 0 127 0" result="hardAlpha"/>
<feOffset dy="4"/>
<feGaussianBlur stdDeviation="2"/>
<feComposite in2="hardAlpha" operator="out"/>
<feColorMatrix type="matrix" values="0 0 0 0 0 0 0 0 0 0 0 0 0 0 0 0 0 0 0.25 0"/>
<feBlend mode="normal" in2="BackgroundImageFix" result="effect1_dropShadow_263_2"/>
<feBlend mode="normal" in="SourceGraphic" in2="effect1_dropShadow_263_2" result="shape"/>
</filter>
<filter id="filter2_d_263_2" x="126.4" y="28.08" width="59.04" height="66.72" filterUnits="userSpaceOnUse" color-interpolation-filters="sRGB">
<feFlood flood-opacity="0" result="BackgroundImageFix"/>
<feColorMatrix in="SourceAlpha" type="matrix" values="0 0 0 0 0 0 0 0 0 0 0 0 0 0 0 0 0 0 127 0" result="hardAlpha"/>
<feOffset dy="4"/>
<feGaussianBlur stdDeviation="2"/>
<feComposite in2="hardAlpha" operator="out"/>
<feColorMatrix type="matrix" values="0 0 0 0 0 0 0 0 0 0 0 0 0 0 0 0 0 0 0.25 0"/>
<feBlend mode="normal" in2="BackgroundImageFix" result="effect1_dropShadow_263_2"/>
<feBlend mode="normal" in="SourceGraphic" in2="effect1_dropShadow_263_2" result="shape"/>
</filter>
</defs>
</svg>
