<svg width="104" height="27" viewBox="0 0 104 27" fill="none" xmlns="http://www.w3.org/2000/svg">
<path d="M9.31299 13.4171L21.7302 0.999985" stroke="white" stroke-width="1.2" stroke-linecap="round"/>
<path d="M5.13904 17.5562L5.13904 1" stroke="white" stroke-width="1.2" stroke-linecap="round"/>
<path d="M5.13904 1.00012L21.6953 1.00015" stroke="white" stroke-width="1.2" stroke-linecap="round"/>
<path d="M21.7302 25.7865L13.4172 17.4735" stroke="white" stroke-width="1.2" stroke-linecap="round"/>
<path d="M5.13904 25.8344L21.6953 25.8344" stroke="white" stroke-width="1.2" stroke-linecap="round"/>
<path d="M1.08276 25.9172L25.7515 1.41402" stroke="white" stroke-width="1.2" stroke-linecap="round"/>
<path d="M1 25.8344L1 13.4173L1 1.00013" stroke="white" stroke-linecap="round"/>
<path d="M26 26L25.9172 13.707L25.8344 1.41403" stroke="white" stroke-linecap="round"/>
<g filter="url(#filter0_i_406_54)">
<path d="M46.4254 25.1936C46.6434 25.2035 46.8564 25.2084 47.0644 25.2084C47.2774 25.2084 47.5003 25.1861 47.7331 25.1416C47.9709 25.097 48.2037 25.0128 48.4315 24.8889C48.6643 24.7701 48.86 24.614 49.0185 24.4209C49.182 24.2326 49.3132 23.9825 49.4123 23.6704C49.5114 23.3584 49.5609 22.9794 49.5609 22.5336C49.5609 22.0878 49.4866 21.6866 49.338 21.33C49.1943 20.9783 48.9962 20.7083 48.7436 20.5201C48.2532 20.1536 47.6613 19.9703 46.9678 19.9703C46.7251 19.9703 46.47 19.9802 46.2025 20H45.831V25.1936H46.4254ZM46.4477 20.0594C46.5517 20.0495 46.683 20.0446 46.8415 20.0446C47 20.0446 47.1189 20.0471 47.1981 20.052C47.2774 20.057 47.3864 20.0768 47.5251 20.1115C47.6638 20.1511 47.7925 20.2031 47.9114 20.2675C48.0303 20.3319 48.1541 20.426 48.2829 20.5498C48.4167 20.6786 48.5306 20.8297 48.6247 21.0031C48.8377 21.4092 48.9442 21.9392 48.9442 22.5931C48.9442 23.0587 48.8872 23.4599 48.7733 23.7967C48.6594 24.1385 48.5281 24.3911 48.3795 24.5546C48.2359 24.7181 48.06 24.8468 47.852 24.941C47.6439 25.04 47.478 25.097 47.3542 25.1118C47.2303 25.1267 47.0867 25.1341 46.9232 25.1341C46.7598 25.1341 46.6013 25.1267 46.4477 25.1118V20.0594ZM52.6733 25.1267V25.201H53.9958V25.1267H53.6318V20.0743H53.9958V20H52.6733V20.0743H53.0151V25.1267H52.6733ZM59.7035 19.9703C58.7772 19.9703 58.0912 20.2328 57.6454 20.7579C57.4869 20.9461 57.3581 21.1962 57.259 21.5083C57.1599 21.8203 57.1104 22.1993 57.1104 22.6451C57.1104 23.0909 57.1822 23.4896 57.3259 23.8413C57.4745 24.198 57.6751 24.4729 57.9277 24.666C58.4181 25.0276 59.01 25.2084 59.7035 25.2084C59.9264 25.2084 60.1443 25.1911 60.3573 25.1564C60.5703 25.1267 60.7288 25.0945 60.8328 25.0598L60.9889 25.0078L60.9666 24.9335C60.5802 25.0673 60.1592 25.1341 59.7035 25.1341C59.1784 25.1341 58.7401 24.9632 58.3884 24.6215C58.1209 24.3688 57.9327 23.9973 57.8237 23.507C57.7593 23.2296 57.7271 22.8903 57.7271 22.4891C57.7271 22.0878 57.7841 21.7163 57.898 21.3745C58.0119 21.0377 58.1407 20.7876 58.2843 20.6241C58.4329 20.4607 58.6113 20.3294 58.8193 20.2303C59.0273 20.1362 59.1933 20.0817 59.3171 20.0669C59.4409 20.052 59.5871 20.0446 59.7555 20.0446C59.9289 20.0446 60.1592 20.0644 60.4465 20.104V21.6346H59.5474V21.7089H61.3827V21.6346H61.0632V20.1709C60.6867 20.0372 60.2335 19.9703 59.7035 19.9703ZM64.3044 25.1267V25.201H65.627V25.1267H65.2629V20.0743H65.627V20H64.3044V20.0743H64.6462V25.1267H64.3044ZM70.495 20H69.8783V25.1267H68.5929V25.201H71.7878V25.1267H70.495V20ZM74.5448 20H74.4557L76.6773 25.201L76.759 25.2382L78.6313 20H77.9998L77.4203 21.6346H75.2507L74.5448 20ZM76.4469 24.3986L75.2804 21.7089H77.398L76.4469 24.3986ZM84.4186 20H81.5952V25.201H82.2118V20.0743H84.4186V20ZM90.127 24.8889C89.6763 25.0623 89.2503 25.149 88.849 25.149C88.4528 25.149 88.1432 25.0648 87.9203 24.8964C87.6974 24.728 87.5859 24.4951 87.5859 24.1979C87.5859 23.8364 87.7742 23.5565 88.1506 23.3584C88.319 23.2742 88.5023 23.1949 88.7004 23.1206C88.9035 23.0513 89.1066 22.972 89.3097 22.8828C89.5128 22.7937 89.6985 22.6921 89.867 22.5782C90.0354 22.4643 90.1716 22.3058 90.2756 22.1027C90.3796 21.9046 90.4316 21.6495 90.4316 21.3374C90.4316 21.0303 90.345 20.7678 90.1716 20.5498C89.9982 20.3319 89.7877 20.1833 89.54 20.104C89.2973 20.0297 89.0125 19.9926 88.6856 19.9926C88.0763 19.9926 87.5562 20.1436 87.1253 20.4458L87.1624 20.5052C87.3259 20.3765 87.5364 20.27 87.794 20.1857C88.0565 20.1065 88.324 20.0669 88.5964 20.0669C88.9976 20.0669 89.3394 20.1585 89.6218 20.3418C89.9091 20.53 90.0527 20.8049 90.0527 21.1665C90.0527 21.5628 89.8645 21.8724 89.488 22.0953C89.3196 22.1943 89.1339 22.286 88.9308 22.3702C88.7326 22.4544 88.532 22.5411 88.3289 22.6302C88.1259 22.7243 87.9401 22.8284 87.7717 22.9423C87.3952 23.1899 87.207 23.5416 87.207 23.9973C87.207 24.3589 87.3284 24.6512 87.5711 24.8741C87.8138 25.1019 88.1779 25.2159 88.6633 25.2159C89.1537 25.2159 89.6515 25.1317 90.1567 24.9632L90.127 24.8889Z" fill="white" fill-opacity="0.29"/>
</g>
<path d="M46.4254 14.8064C46.6434 14.7965 46.8564 14.7916 47.0644 14.7916C47.2774 14.7916 47.5003 14.8139 47.7331 14.8584C47.9709 14.903 48.2037 14.9872 48.4315 15.1111C48.6643 15.2299 48.86 15.386 49.0185 15.5791C49.182 15.7674 49.3132 16.0175 49.4123 16.3296C49.5114 16.6416 49.5609 17.0206 49.5609 17.4664C49.5609 17.9122 49.4866 18.3134 49.338 18.67C49.1943 19.0217 48.9962 19.2917 48.7436 19.4799C48.2532 19.8464 47.6613 20.0297 46.9678 20.0297C46.7251 20.0297 46.47 20.0198 46.2025 20H45.831V14.8064H46.4254ZM46.4477 19.9406C46.5517 19.9505 46.683 19.9554 46.8415 19.9554C47 19.9554 47.1189 19.9529 47.1981 19.948C47.2774 19.943 47.3864 19.9232 47.5251 19.8885C47.6638 19.8489 47.7925 19.7969 47.9114 19.7325C48.0303 19.6681 48.1541 19.574 48.2829 19.4502C48.4167 19.3214 48.5306 19.1703 48.6247 18.9969C48.8377 18.5908 48.9442 18.0608 48.9442 17.4069C48.9442 16.9413 48.8872 16.5401 48.7733 16.2033C48.6594 15.8615 48.5281 15.6089 48.3795 15.4454C48.2359 15.2819 48.06 15.1532 47.852 15.059C47.6439 14.96 47.478 14.903 47.3542 14.8882C47.2303 14.8733 47.0867 14.8659 46.9232 14.8659C46.7598 14.8659 46.6013 14.8733 46.4477 14.8882V19.9406ZM52.6733 14.8733V14.799H53.9958V14.8733H53.6318V19.9257H53.9958V20H52.6733V19.9257H53.0151V14.8733H52.6733ZM59.7035 20.0297C58.7772 20.0297 58.0912 19.7672 57.6454 19.2421C57.4869 19.0539 57.3581 18.8038 57.259 18.4917C57.1599 18.1797 57.1104 17.8007 57.1104 17.3549C57.1104 16.9091 57.1822 16.5104 57.3259 16.1587C57.4745 15.802 57.6751 15.5271 57.9277 15.334C58.4181 14.9724 59.01 14.7916 59.7035 14.7916C59.9264 14.7916 60.1443 14.8089 60.3573 14.8436C60.5703 14.8733 60.7288 14.9055 60.8328 14.9402L60.9889 14.9922L60.9666 15.0665C60.5802 14.9327 60.1592 14.8659 59.7035 14.8659C59.1784 14.8659 58.7401 15.0368 58.3884 15.3785C58.1209 15.6312 57.9327 16.0027 57.8237 16.493C57.7593 16.7704 57.7271 17.1097 57.7271 17.5109C57.7271 17.9122 57.7841 18.2837 57.898 18.6255C58.0119 18.9623 58.1407 19.2124 58.2843 19.3759C58.4329 19.5393 58.6113 19.6706 58.8193 19.7697C59.0273 19.8638 59.1933 19.9183 59.3171 19.9331C59.4409 19.948 59.5871 19.9554 59.7555 19.9554C59.9289 19.9554 60.1592 19.9356 60.4465 19.896V18.3654H59.5474V18.2911H61.3827V18.3654H61.0632V19.8291C60.6867 19.9628 60.2335 20.0297 59.7035 20.0297ZM64.3044 14.8733V14.799H65.627V14.8733H65.2629V19.9257H65.627V20H64.3044V19.9257H64.6462V14.8733H64.3044ZM70.495 20H69.8783V14.8733H68.5929V14.799H71.7878V14.8733H70.495V20ZM74.5448 20H74.4557L76.6773 14.799L76.759 14.7618L78.6313 20H77.9998L77.4203 18.3654H75.2507L74.5448 20ZM76.4469 15.6014L75.2804 18.2911H77.398L76.4469 15.6014ZM84.4186 20H81.5952V14.799H82.2118V19.9257H84.4186V20ZM90.127 15.1111C89.6763 14.9377 89.2503 14.851 88.849 14.851C88.4528 14.851 88.1432 14.9352 87.9203 15.1036C87.6974 15.272 87.5859 15.5049 87.5859 15.8021C87.5859 16.1636 87.7742 16.4435 88.1506 16.6416C88.319 16.7258 88.5023 16.8051 88.7004 16.8794C88.9035 16.9487 89.1066 17.028 89.3097 17.1172C89.5128 17.2063 89.6985 17.3079 89.867 17.4218C90.0354 17.5357 90.1716 17.6942 90.2756 17.8973C90.3796 18.0954 90.4316 18.3505 90.4316 18.6626C90.4316 18.9697 90.345 19.2322 90.1716 19.4502C89.9982 19.6681 89.7877 19.8167 89.54 19.896C89.2973 19.9703 89.0125 20.0074 88.6856 20.0074C88.0763 20.0074 87.5562 19.8564 87.1253 19.5542L87.1624 19.4948C87.3259 19.6235 87.5364 19.73 87.794 19.8143C88.0565 19.8935 88.324 19.9331 88.5964 19.9331C88.9976 19.9331 89.3394 19.8415 89.6218 19.6582C89.9091 19.47 90.0527 19.1951 90.0527 18.8335C90.0527 18.4372 89.8645 18.1276 89.488 17.9047C89.3196 17.8057 89.1339 17.714 88.9308 17.6298C88.7326 17.5456 88.532 17.4589 88.3289 17.3698C88.1259 17.2757 87.9401 17.1716 87.7717 17.0577C87.3952 16.8101 87.207 16.4584 87.207 16.0027C87.207 15.6411 87.3284 15.3488 87.5711 15.1259C87.8138 14.8981 88.1779 14.7841 88.6633 14.7841C89.1537 14.7841 89.6515 14.8683 90.1567 15.0368L90.127 15.1111Z" fill="white"/>
<path d="M41.1875 10.9609C41.1875 10.1484 40.901 9.53125 40.3281 9.10938C39.7552 8.6875 38.9219 8.47656 37.8281 8.47656C37.6771 8.47656 37.4297 8.48698 37.0859 8.50781C36.9505 8.51823 36.8516 8.52604 36.7891 8.53125V9.84375C36.7891 10.2708 36.7943 10.7526 36.8047 11.2891C36.8151 11.8203 36.8359 12.4453 36.8672 13.1641C37.1068 13.2422 37.3698 13.2995 37.6562 13.3359C37.9427 13.3724 38.2396 13.3906 38.5469 13.3906C39.349 13.3906 39.9896 13.1641 40.4688 12.7109C40.9479 12.2578 41.1875 11.6745 41.1875 10.9609ZM40.4688 5.67969C40.4688 4.96615 40.224 4.40104 39.7344 3.98438C39.25 3.56771 38.5859 3.35938 37.7422 3.35938C37.6068 3.35938 37.4661 3.36719 37.3203 3.38281C37.1797 3.39323 37.013 3.41146 36.8203 3.4375C36.8047 4 36.7943 4.59115 36.7891 5.21094C36.7891 5.83073 36.7891 6.73438 36.7891 7.92188C37.0026 7.93229 37.2005 7.9401 37.3828 7.94531C37.5703 7.95052 37.7448 7.95312 37.9062 7.95312C38.151 7.95312 38.4036 7.94792 38.6641 7.9375C38.9297 7.92188 39.1589 7.90365 39.3516 7.88281C39.6953 7.64323 39.9661 7.32812 40.1641 6.9375C40.3672 6.54688 40.4688 6.1276 40.4688 5.67969ZM42.8672 10.7969C42.8672 11.7865 42.4766 12.5729 41.6953 13.1562C40.9193 13.7396 39.8698 14.0312 38.5469 14.0312C38.2135 14.0312 37.7396 14.013 37.125 13.9766C36.5104 13.9401 36.0781 13.9219 35.8281 13.9219C35.5729 13.9219 35.0938 13.9427 34.3906 13.9844C34.1771 14 34.0156 14.0104 33.9062 14.0156V13.6641C33.9323 13.6693 33.9688 13.6745 34.0156 13.6797C34.0677 13.6797 34.138 13.6797 34.2266 13.6797C34.6849 13.6797 34.9844 13.5156 35.125 13.1875C35.2708 12.8542 35.3438 12.1927 35.3438 11.2031V5.35938C35.3438 4.40104 35.276 3.78906 35.1406 3.52344C35.0104 3.2526 34.7057 3.11719 34.2266 3.11719C34.1589 3.11719 34.1094 3.11979 34.0781 3.125C34.0469 3.125 34.0156 3.1276 33.9844 3.13281V2.79688L34.0781 2.80469C34.9479 2.85677 35.5833 2.88281 35.9844 2.88281C36.25 2.88281 36.6484 2.86979 37.1797 2.84375C37.7161 2.8125 38.1172 2.79688 38.3828 2.79688C39.513 2.79688 40.3958 3.03385 41.0312 3.50781C41.6667 3.98177 41.9844 4.625 41.9844 5.4375C41.9844 5.99479 41.8047 6.51042 41.4453 6.98438C41.0859 7.45312 40.599 7.81771 39.9844 8.07812C40.8646 8.23438 41.5651 8.5599 42.0859 9.05469C42.6068 9.54948 42.8672 10.1302 42.8672 10.7969ZM61.5312 10.9609C61.5312 10.1484 61.2448 9.53125 60.6719 9.10938C60.099 8.6875 59.2656 8.47656 58.1719 8.47656C58.0208 8.47656 57.7734 8.48698 57.4297 8.50781C57.2943 8.51823 57.1953 8.52604 57.1328 8.53125V9.84375C57.1328 10.2708 57.138 10.7526 57.1484 11.2891C57.1589 11.8203 57.1797 12.4453 57.2109 13.1641C57.4505 13.2422 57.7135 13.2995 58 13.3359C58.2865 13.3724 58.5833 13.3906 58.8906 13.3906C59.6927 13.3906 60.3333 13.1641 60.8125 12.7109C61.2917 12.2578 61.5312 11.6745 61.5312 10.9609ZM60.8125 5.67969C60.8125 4.96615 60.5677 4.40104 60.0781 3.98438C59.5938 3.56771 58.9297 3.35938 58.0859 3.35938C57.9505 3.35938 57.8099 3.36719 57.6641 3.38281C57.5234 3.39323 57.3568 3.41146 57.1641 3.4375C57.1484 4 57.138 4.59115 57.1328 5.21094C57.1328 5.83073 57.1328 6.73438 57.1328 7.92188C57.3464 7.93229 57.5443 7.9401 57.7266 7.94531C57.9141 7.95052 58.0885 7.95312 58.25 7.95312C58.4948 7.95312 58.7474 7.94792 59.0078 7.9375C59.2734 7.92188 59.5026 7.90365 59.6953 7.88281C60.0391 7.64323 60.3099 7.32812 60.5078 6.9375C60.7109 6.54688 60.8125 6.1276 60.8125 5.67969ZM63.2109 10.7969C63.2109 11.7865 62.8203 12.5729 62.0391 13.1562C61.263 13.7396 60.2135 14.0312 58.8906 14.0312C58.5573 14.0312 58.0833 14.013 57.4688 13.9766C56.8542 13.9401 56.4219 13.9219 56.1719 13.9219C55.9167 13.9219 55.4375 13.9427 54.7344 13.9844C54.5208 14 54.3594 14.0104 54.25 14.0156V13.6641C54.276 13.6693 54.3125 13.6745 54.3594 13.6797C54.4115 13.6797 54.4818 13.6797 54.5703 13.6797C55.0286 13.6797 55.3281 13.5156 55.4688 13.1875C55.6146 12.8542 55.6875 12.1927 55.6875 11.2031V5.35938C55.6875 4.40104 55.6198 3.78906 55.4844 3.52344C55.3542 3.2526 55.0495 3.11719 54.5703 3.11719C54.5026 3.11719 54.4531 3.11979 54.4219 3.125C54.3906 3.125 54.3594 3.1276 54.3281 3.13281V2.79688L54.4219 2.80469C55.2917 2.85677 55.9271 2.88281 56.3281 2.88281C56.5938 2.88281 56.9922 2.86979 57.5234 2.84375C58.0599 2.8125 58.4609 2.79688 58.7266 2.79688C59.8568 2.79688 60.7396 3.03385 61.375 3.50781C62.0104 3.98177 62.3281 4.625 62.3281 5.4375C62.3281 5.99479 62.1484 6.51042 61.7891 6.98438C61.4297 7.45312 60.9427 7.81771 60.3281 8.07812C61.2083 8.23438 61.9089 8.5599 62.4297 9.05469C62.9505 9.54948 63.2109 10.1302 63.2109 10.7969ZM83.3125 11.6797C83.1615 12.1328 83.0339 12.5495 82.9297 12.9297C82.8255 13.3047 82.7396 13.6615 82.6719 14C82.4792 13.9948 82.1927 13.987 81.8125 13.9766C80.6094 13.9401 79.6432 13.9219 78.9141 13.9219C77.8932 13.9219 76.5026 13.9453 74.7422 13.9922L74.5938 14V13.6641C74.6198 13.6693 74.6562 13.6745 74.7031 13.6797C74.7552 13.6797 74.8255 13.6797 74.9141 13.6797C75.3724 13.6797 75.6719 13.5156 75.8125 13.1875C75.9583 12.8542 76.0312 12.1927 76.0312 11.2031V5.35938C76.0312 4.40104 75.9635 3.78906 75.8281 3.52344C75.6979 3.2526 75.3932 3.11719 74.9141 3.11719C74.8464 3.11719 74.7969 3.11979 74.7656 3.125C74.7344 3.125 74.7031 3.1276 74.6719 3.13281V2.80469L74.9219 2.8125C76.776 2.91146 78.1068 2.96094 78.9141 2.96094C79.3203 2.96094 79.8333 2.94792 80.4531 2.92188C81.0781 2.89062 81.737 2.84896 82.4297 2.79688C82.4297 3.11458 82.4427 3.45573 82.4688 3.82031C82.4948 4.17969 82.5365 4.59635 82.5938 5.07031L82.2734 5.11719C82.0599 4.38802 81.7943 3.9401 81.4766 3.77344C81.1641 3.60677 80.5234 3.52344 79.5547 3.52344C79.2057 3.52344 78.8464 3.52865 78.4766 3.53906C78.112 3.54427 77.7891 3.55469 77.5078 3.57031C77.4974 4.02865 77.4896 4.5625 77.4844 5.17188C77.4792 5.77604 77.4766 6.70312 77.4766 7.95312C77.6016 7.96875 77.7266 7.98177 77.8516 7.99219C77.9818 7.9974 78.1224 8 78.2734 8H79.7109C80.4557 8 80.9635 7.92708 81.2344 7.78125C81.5104 7.63542 81.6693 7.35156 81.7109 6.92969L82.0312 6.96094C81.9948 7.14844 81.9661 7.35677 81.9453 7.58594C81.9297 7.8099 81.9219 8.05469 81.9219 8.32031C81.9219 8.57552 81.9297 8.82552 81.9453 9.07031C81.9661 9.3151 81.9948 9.57031 82.0312 9.83594L81.7109 9.875C81.6693 9.36458 81.5104 9.02344 81.2344 8.85156C80.9635 8.67969 80.4557 8.59375 79.7109 8.59375H78.2734C78.1172 8.59375 77.974 8.59896 77.8438 8.60938C77.7188 8.61458 77.5964 8.625 77.4766 8.64062C77.4766 9.33854 77.4818 10.1172 77.4922 10.9766C77.5078 11.8359 77.5286 12.5755 77.5547 13.1953C77.9141 13.237 78.2839 13.2708 78.6641 13.2969C79.0443 13.3177 79.3932 13.3281 79.7109 13.3281C80.7109 13.3281 81.4271 13.2214 81.8594 13.0078C82.2969 12.7891 82.6745 12.3099 82.9922 11.5703L83.3125 11.6797ZM103.172 11.6797C103.021 12.1328 102.893 12.5495 102.789 12.9297C102.685 13.3047 102.599 13.6615 102.531 14C102.339 13.9948 102.052 13.987 101.672 13.9766C100.469 13.9401 99.5026 13.9219 98.7734 13.9219C97.7526 13.9219 96.362 13.9453 94.6016 13.9922L94.4531 14V13.6641C94.4792 13.6693 94.5156 13.6745 94.5625 13.6797C94.6146 13.6797 94.6849 13.6797 94.7734 13.6797C95.2318 13.6797 95.5312 13.5156 95.6719 13.1875C95.8177 12.8542 95.8906 12.1927 95.8906 11.2031V5.35938C95.8906 4.40104 95.8229 3.78906 95.6875 3.52344C95.5573 3.2526 95.2526 3.11719 94.7734 3.11719C94.7057 3.11719 94.6562 3.11979 94.625 3.125C94.5938 3.125 94.5625 3.1276 94.5312 3.13281V2.80469L94.7812 2.8125C96.6354 2.91146 97.9661 2.96094 98.7734 2.96094C99.1797 2.96094 99.6927 2.94792 100.312 2.92188C100.938 2.89062 101.596 2.84896 102.289 2.79688C102.289 3.11458 102.302 3.45573 102.328 3.82031C102.354 4.17969 102.396 4.59635 102.453 5.07031L102.133 5.11719C101.919 4.38802 101.654 3.9401 101.336 3.77344C101.023 3.60677 100.383 3.52344 99.4141 3.52344C99.0651 3.52344 98.7057 3.52865 98.3359 3.53906C97.9714 3.54427 97.6484 3.55469 97.3672 3.57031C97.3568 4.02865 97.349 4.5625 97.3438 5.17188C97.3385 5.77604 97.3359 6.70312 97.3359 7.95312C97.4609 7.96875 97.5859 7.98177 97.7109 7.99219C97.8411 7.9974 97.9818 8 98.1328 8H99.5703C100.315 8 100.823 7.92708 101.094 7.78125C101.37 7.63542 101.529 7.35156 101.57 6.92969L101.891 6.96094C101.854 7.14844 101.826 7.35677 101.805 7.58594C101.789 7.8099 101.781 8.05469 101.781 8.32031C101.781 8.57552 101.789 8.82552 101.805 9.07031C101.826 9.3151 101.854 9.57031 101.891 9.83594L101.57 9.875C101.529 9.36458 101.37 9.02344 101.094 8.85156C100.823 8.67969 100.315 8.59375 99.5703 8.59375H98.1328C97.9766 8.59375 97.8333 8.59896 97.7031 8.60938C97.5781 8.61458 97.4557 8.625 97.3359 8.64062C97.3359 9.33854 97.3411 10.1172 97.3516 10.9766C97.3672 11.8359 97.388 12.5755 97.4141 13.1953C97.7734 13.237 98.1432 13.2708 98.5234 13.2969C98.9036 13.3177 99.2526 13.3281 99.5703 13.3281C100.57 13.3281 101.286 13.2214 101.719 13.0078C102.156 12.7891 102.534 12.3099 102.852 11.5703L103.172 11.6797Z" fill="white"/>
<defs>
<filter id="filter0_i_406_54" x="45.8311" y="19.9703" width="44.6006" height="9.26788" filterUnits="userSpaceOnUse" color-interpolation-filters="sRGB">
<feFlood flood-opacity="0" result="BackgroundImageFix"/>
<feBlend mode="normal" in="SourceGraphic" in2="BackgroundImageFix" result="shape"/>
<feColorMatrix in="SourceAlpha" type="matrix" values="0 0 0 0 0 0 0 0 0 0 0 0 0 0 0 0 0 0 127 0" result="hardAlpha"/>
<feOffset dy="4"/>
<feGaussianBlur stdDeviation="2"/>
<feComposite in2="hardAlpha" operator="arithmetic" k2="-1" k3="1"/>
<feColorMatrix type="matrix" values="0 0 0 0 0 0 0 0 0 0 0 0 0 0 0 0 0 0 0.25 0"/>
<feBlend mode="normal" in2="shape" result="effect1_innerShadow_406_54"/>
</filter>
</defs>
</svg>
