<svg width="192" height="172" viewBox="0 0 192 172" fill="none" xmlns="http://www.w3.org/2000/svg">
<g filter="url(#filter0_f_405_19)">
<g filter="url(#filter1_d_405_19)">
<path d="M51.28 86V86.6H52.06C53.14 86.6 54.04 86.76 54.76 87.08C55.52 87.4 56.08 87.88 56.44 88.52C56.8 89.16 56.98 89.96 56.98 90.92V124.16C56.98 125.08 56.8 125.84 56.44 126.44C56.08 127.04 55.52 127.48 54.76 127.76C54.04 128.08 53.14 128.24 52.06 128.24H51.28V128.84H67.42C70.9 128.84 73.78 128.4 76.06 127.52C78.34 126.68 80.04 125.42 81.16 123.74C82.28 122.06 82.84 120.02 82.84 117.62C82.84 115.3 82.36 113.38 81.4 111.86C80.48 110.38 79.28 109.22 77.8 108.38C76.36 107.54 74.86 106.9 73.3 106.46L81.76 93.26C82.6 91.98 83.32 90.9 83.92 90.02C84.56 89.18 85.14 88.5 85.66 87.98C86.18 87.5 86.66 87.14 87.1 86.9C87.58 86.7 88.06 86.6 88.54 86.6H88.72V86H87.88C86 86 84.44 86.06 83.2 86.18C82 86.34 81 86.6 80.2 86.96C79.4 87.32 78.68 87.84 78.04 88.52C77.44 89.24 76.78 90.16 76.06 91.28L66.82 105.98H63.04V90.92C63.04 89.96 63.22 89.16 63.58 88.52C63.94 87.88 64.48 87.4 65.2 87.08C65.96 86.76 66.88 86.6 67.96 86.6H68.74V86H51.28ZM67.24 106.58C69.48 106.58 71.26 106.92 72.58 107.6C73.94 108.32 74.92 109.46 75.52 111.02C76.12 112.58 76.42 114.64 76.42 117.2C76.42 119.84 76.1 121.96 75.46 123.56C74.86 125.2 73.88 126.38 72.52 127.1C71.16 127.86 69.36 128.24 67.12 128.24H63.04V106.58H67.24ZM120.263 85.4C116.023 85.4 112.503 86.32 109.703 88.16C106.903 90 104.803 92.58 103.403 95.9C102.043 99.22 101.363 103.1 101.363 107.54C101.363 111.98 102.043 115.84 103.403 119.12C104.803 122.4 106.903 124.94 109.703 126.74C112.543 128.58 116.083 129.5 120.323 129.5C124.363 129.5 127.763 128.58 130.523 126.74C133.323 124.94 135.443 122.38 136.883 119.06C138.363 115.78 139.103 111.92 139.103 107.48C139.103 103.04 138.363 99.16 136.883 95.84C135.443 92.56 133.323 90 130.523 88.16C127.723 86.32 124.303 85.4 120.263 85.4ZM120.263 86C122.383 86 124.203 86.4 125.723 87.2C127.283 88.04 128.543 89.32 129.503 91.04C130.503 92.8 131.243 95.04 131.723 97.76C132.203 100.48 132.443 103.72 132.443 107.48C132.443 111.24 132.203 114.46 131.723 117.14C131.243 119.86 130.503 122.08 129.503 123.8C128.543 125.56 127.303 126.84 125.783 127.64C124.263 128.48 122.443 128.9 120.323 128.9C118.163 128.9 116.303 128.48 114.743 127.64C113.223 126.84 111.963 125.56 110.963 123.8C109.963 122.08 109.223 119.86 108.743 117.14C108.263 114.46 108.023 111.24 108.023 107.48C108.023 103.72 108.263 100.48 108.743 97.76C109.223 95.04 109.943 92.8 110.903 91.04C111.903 89.32 113.163 88.04 114.683 87.2C116.243 86.4 118.103 86 120.263 86Z" fill="white" fill-opacity="0.1" shape-rendering="crispEdges"/>
<path d="M51.28 86H51.08V85.8H51.28V86ZM51.28 86.6V86.8H51.08V86.6H51.28ZM54.76 87.08L54.6824 87.2644L54.6788 87.2628L54.76 87.08ZM56.44 88.52L56.6143 88.4219L56.6143 88.4219L56.44 88.52ZM56.44 126.44L56.6115 126.543L56.6115 126.543L56.44 126.44ZM54.76 127.76L54.6786 127.577L54.6909 127.572L54.76 127.76ZM51.28 128.24H51.08V128.04H51.28V128.24ZM51.28 128.84V129.04H51.08V128.84H51.28ZM76.06 127.52L75.988 127.333L75.9909 127.332L76.06 127.52ZM81.16 123.74L80.9936 123.629L81.16 123.74ZM81.4 111.86L81.2309 111.967L81.2301 111.966L81.4 111.86ZM77.8 108.38L77.7013 108.554L77.6992 108.553L77.8 108.38ZM73.3 106.46L73.2457 106.652L72.986 106.579L73.1316 106.352L73.3 106.46ZM81.76 93.26L81.5916 93.1521L81.5928 93.1503L81.76 93.26ZM83.92 90.02L83.7545 89.9072L83.7609 89.8988L83.92 90.02ZM85.66 87.98L85.5185 87.8385L85.5243 87.833L85.66 87.98ZM87.1 86.9L87.0042 86.7244L87.0134 86.7194L87.0231 86.7154L87.1 86.9ZM88.72 86.6H88.92V86.8H88.72V86.6ZM88.72 86V85.8H88.92V86H88.72ZM83.2 86.18L83.1736 85.9816L83.1807 85.9809L83.2 86.18ZM80.2 86.96L80.2821 87.1424L80.2821 87.1424L80.2 86.96ZM78.04 88.52L77.8861 88.3917L77.8944 88.3829L78.04 88.52ZM76.06 91.28L75.8907 91.1736L75.8918 91.1718L76.06 91.28ZM66.82 105.98L66.9893 106.086L66.9305 106.18H66.82V105.98ZM63.04 105.98V106.18H62.84V105.98H63.04ZM63.58 88.52L63.7543 88.6181L63.7543 88.6181L63.58 88.52ZM65.2 87.08L65.1188 86.8972L65.1224 86.8957L65.2 87.08ZM68.74 86.6H68.94V86.8H68.74V86.6ZM68.74 86V85.8H68.94V86H68.74ZM72.58 107.6L72.6716 107.422L72.6736 107.423L72.58 107.6ZM75.52 111.02L75.7067 110.948L75.7067 110.948L75.52 111.02ZM75.46 123.56L75.2721 123.491L75.2743 123.486L75.46 123.56ZM72.52 127.1L72.4224 126.925L72.4264 126.923L72.52 127.1ZM63.04 128.24V128.44H62.84V128.24H63.04ZM63.04 106.58H62.84V106.38H63.04V106.58ZM51.48 86V86.6H51.08V86H51.48ZM51.28 86.4H52.06V86.8H51.28V86.4ZM52.06 86.4C53.1582 86.4 54.088 86.5625 54.8412 86.8972L54.6788 87.2628C53.992 86.9575 53.1218 86.8 52.06 86.8V86.4ZM54.8376 86.8957C55.6332 87.2307 56.2299 87.7385 56.6143 88.4219L56.2657 88.6181C55.9301 88.0215 55.4068 87.5693 54.6824 87.2643L54.8376 86.8957ZM56.6143 88.4219C56.9956 89.0997 57.18 89.9359 57.18 90.92H56.78C56.78 89.9841 56.6044 89.2203 56.2657 88.6181L56.6143 88.4219ZM57.18 90.92V124.16H56.78V90.92H57.18ZM57.18 124.16C57.18 125.105 56.9951 125.903 56.6115 126.543L56.2685 126.337C56.6049 125.777 56.78 125.055 56.78 124.16H57.18ZM56.6115 126.543C56.2244 127.188 55.6249 127.655 54.8291 127.948L54.6909 127.572C55.4151 127.305 55.9356 126.892 56.2685 126.337L56.6115 126.543ZM54.8412 127.943C54.088 128.278 53.1582 128.44 52.06 128.44V128.04C53.1218 128.04 53.992 127.882 54.6788 127.577L54.8412 127.943ZM52.06 128.44H51.28V128.04H52.06V128.44ZM51.48 128.24V128.84H51.08V128.24H51.48ZM51.28 128.64H67.42V129.04H51.28V128.64ZM67.42 128.64C70.885 128.64 73.7385 128.202 75.988 127.333L76.132 127.707C73.8215 128.598 70.915 129.04 67.42 129.04V128.64ZM75.9909 127.332C78.2394 126.504 79.9015 125.267 80.9936 123.629L81.3264 123.851C80.1785 125.573 78.4406 126.856 76.1291 127.708L75.9909 127.332ZM80.9936 123.629C82.0878 121.988 82.64 119.988 82.64 117.62H83.04C83.04 120.052 82.4722 122.132 81.3264 123.851L80.9936 123.629ZM82.64 117.62C82.64 115.327 82.1656 113.447 81.2309 111.967L81.5691 111.753C82.5544 113.313 83.04 115.273 83.04 117.62H82.64ZM81.2301 111.966C80.3273 110.513 79.1515 109.377 77.7013 108.554L77.8987 108.206C79.4085 109.063 80.6327 110.247 81.5699 111.754L81.2301 111.966ZM77.6992 108.553C76.2734 107.721 74.789 107.088 73.2457 106.652L73.3543 106.268C74.931 106.712 76.4466 107.359 77.9008 108.207L77.6992 108.553ZM73.1316 106.352L81.5916 93.1521L81.9284 93.3679L73.4684 106.568L73.1316 106.352ZM81.5928 93.1503C82.4332 91.8697 83.1539 90.7886 83.7548 89.9073L84.0852 90.1327C83.4861 91.0114 82.7668 92.0903 81.9272 93.3697L81.5928 93.1503ZM83.7609 89.8988C84.4042 89.0545 84.9902 88.367 85.5186 87.8386L85.8014 88.1214C85.2898 88.633 84.7158 89.3055 84.0791 90.1412L83.7609 89.8988ZM85.5243 87.833C86.0519 87.3461 86.5453 86.9748 87.0042 86.7244L87.1958 87.0756C86.7747 87.3052 86.3081 87.6539 85.7957 88.127L85.5243 87.833ZM87.0231 86.7154C87.5254 86.5061 88.0315 86.4 88.54 86.4V86.8C88.0885 86.8 87.6346 86.8939 87.1769 87.0846L87.0231 86.7154ZM88.54 86.4H88.72V86.8H88.54V86.4ZM88.52 86.6V86H88.92V86.6H88.52ZM88.72 86.2H87.88V85.8H88.72V86.2ZM87.88 86.2C86.0036 86.2 84.4505 86.2599 83.2193 86.3791L83.1807 85.9809C84.4295 85.8601 85.9964 85.8 87.88 85.8V86.2ZM83.2264 86.3782C82.0389 86.5366 81.0591 86.7927 80.2821 87.1424L80.1179 86.7776C80.9409 86.4073 81.9611 86.1434 83.1736 85.9818L83.2264 86.3782ZM80.2821 87.1424C79.5075 87.4909 78.8088 87.995 78.1856 88.6571L77.8944 88.3829C78.5512 87.685 79.2925 87.1491 80.1179 86.7776L80.2821 87.1424ZM78.1936 88.648C77.6006 89.3597 76.9455 90.2725 76.2282 91.3882L75.8918 91.1718C76.6145 90.0475 77.2794 89.1203 77.8864 88.392L78.1936 88.648ZM76.2293 91.3864L66.9893 106.086L66.6507 105.874L75.8907 91.1736L76.2293 91.3864ZM66.82 106.18H63.04V105.78H66.82V106.18ZM62.84 105.98V90.92H63.24V105.98H62.84ZM62.84 90.92C62.84 89.9359 63.0244 89.0997 63.4057 88.4219L63.7543 88.6181C63.4156 89.2203 63.24 89.9841 63.24 90.92H62.84ZM63.4057 88.4219C63.7884 87.7416 64.3625 87.2334 65.1188 86.8972L65.2812 87.2628C64.5975 87.5666 64.0916 88.0184 63.7543 88.6181L63.4057 88.4219ZM65.1224 86.8957C65.9133 86.5627 66.8612 86.4 67.96 86.4V86.8C66.8988 86.8 66.0067 86.9573 65.2776 87.2643L65.1224 86.8957ZM67.96 86.4H68.74V86.8H67.96V86.4ZM68.54 86.6V86H68.94V86.6H68.54ZM68.74 86.2H51.28V85.8H68.74V86.2ZM67.24 106.38C69.497 106.38 71.3125 106.722 72.6716 107.422L72.4884 107.778C71.2075 107.118 69.463 106.78 67.24 106.78V106.38ZM72.6736 107.423C74.0801 108.168 75.0909 109.347 75.7067 110.948L75.3333 111.092C74.7491 109.573 73.7999 108.472 72.4864 107.777L72.6736 107.423ZM75.7067 110.948C76.3189 112.54 76.62 114.627 76.62 117.2H76.22C76.22 114.653 75.9211 112.62 75.3333 111.092L75.7067 110.948ZM76.62 117.2C76.62 119.853 76.2988 122.002 75.6457 123.634L75.2743 123.486C75.9012 121.918 76.22 119.827 76.22 117.2H76.62ZM75.6478 123.629C75.0333 125.308 74.0232 126.53 72.6136 127.277L72.4264 126.923C73.7368 126.23 74.6867 125.092 75.2722 123.491L75.6478 123.629ZM72.6176 127.275C71.2175 128.057 69.3801 128.44 67.12 128.44V128.04C69.3399 128.04 71.1025 127.663 72.4224 126.925L72.6176 127.275ZM67.12 128.44H63.04V128.04H67.12V128.44ZM62.84 128.24V106.58H63.24V128.24H62.84ZM63.04 106.38H67.24V106.78H63.04V106.38ZM109.703 88.16L109.813 88.3271L109.813 88.3271L109.703 88.16ZM103.403 95.9L103.218 95.8242L103.219 95.8223L103.403 95.9ZM103.403 119.12L103.219 119.199L103.218 119.197L103.403 119.12ZM109.703 126.74L109.811 126.572L109.812 126.572L109.703 126.74ZM130.523 126.74L130.412 126.574L130.415 126.572L130.523 126.74ZM136.883 119.06L136.7 118.98L136.701 118.978L136.883 119.06ZM136.883 95.84L136.7 95.9214L136.7 95.9204L136.883 95.84ZM130.523 88.16L130.633 87.9929L130.633 87.9929L130.523 88.16ZM125.723 87.2L125.816 87.023L125.818 87.0239L125.723 87.2ZM129.503 91.04L129.329 91.1388L129.328 91.1375L129.503 91.04ZM131.723 97.76L131.92 97.7252L131.92 97.7252L131.723 97.76ZM131.723 117.14L131.526 117.105L131.526 117.105L131.723 117.14ZM129.503 123.8L129.327 123.704L129.33 123.699L129.503 123.8ZM125.783 127.64L125.686 127.465L125.69 127.463L125.783 127.64ZM114.743 127.64L114.836 127.463L114.838 127.464L114.743 127.64ZM110.963 123.8L111.136 123.699L111.137 123.701L110.963 123.8ZM108.743 117.14L108.94 117.105L108.94 117.105L108.743 117.14ZM108.743 97.76L108.546 97.7252L108.546 97.7252L108.743 97.76ZM110.903 91.04L110.727 90.9442L110.73 90.9395L110.903 91.04ZM114.683 87.2L114.586 87.0249L114.592 87.022L114.683 87.2ZM120.263 85.6C116.052 85.6 112.573 86.5136 109.813 88.3271L109.593 87.9929C112.434 86.1264 115.994 85.2 120.263 85.2V85.6ZM109.813 88.3271C107.049 90.1437 104.973 92.6914 103.587 95.9777L103.219 95.8223C104.633 92.4686 106.758 89.8563 109.593 87.9929L109.813 88.3271ZM103.588 95.9758C102.24 99.2668 101.563 103.12 101.563 107.54H101.163C101.163 103.08 101.846 99.1732 103.218 95.8242L103.588 95.9758ZM101.563 107.54C101.563 111.96 102.24 115.793 103.588 119.043L103.218 119.197C101.846 115.887 101.163 112 101.163 107.54H101.563ZM103.587 119.041C104.973 122.287 107.047 124.795 109.811 126.572L109.595 126.908C106.759 125.085 104.634 122.513 103.219 119.199L103.587 119.041ZM109.812 126.572C112.612 128.386 116.112 129.3 120.323 129.3V129.7C116.054 129.7 112.474 128.774 109.594 126.908L109.812 126.572ZM120.323 129.3C124.332 129.3 127.692 128.387 130.412 126.574L130.634 126.906C127.835 128.773 124.394 129.7 120.323 129.7V129.3ZM130.415 126.572C133.179 124.795 135.274 122.267 136.7 118.98L137.067 119.14C135.612 122.493 133.468 125.085 130.631 126.908L130.415 126.572ZM136.701 118.978C138.167 115.729 138.903 111.898 138.903 107.48H139.303C139.303 111.942 138.559 115.831 137.065 119.142L136.701 118.978ZM138.903 107.48C138.903 103.062 138.167 99.2108 136.7 95.9214L137.066 95.7586C138.559 99.1092 139.303 103.018 139.303 107.48H138.903ZM136.7 95.9204C135.274 92.6732 133.179 90.1444 130.413 88.3271L130.633 87.9929C133.468 89.8556 135.612 92.4468 137.066 95.7596L136.7 95.9204ZM130.413 88.3271C127.652 86.5126 124.272 85.6 120.263 85.6V85.2C124.334 85.2 127.794 86.1274 130.633 87.9929L130.413 88.3271ZM120.263 85.8C122.408 85.8 124.262 86.2048 125.816 87.023L125.63 87.377C124.145 86.5952 122.358 86.2 120.263 86.2V85.8ZM125.818 87.0239C127.415 87.884 128.701 89.1931 129.678 90.9425L129.328 91.1375C128.385 89.4469 127.151 88.196 125.628 87.3761L125.818 87.0239ZM129.677 90.9412C130.692 92.7269 131.437 94.9904 131.92 97.7252L131.526 97.7948C131.049 95.0896 130.315 92.8732 129.329 91.1388L129.677 90.9412ZM131.92 97.7252C132.403 100.46 132.643 103.712 132.643 107.48H132.243C132.243 103.728 132.004 100.5 131.526 97.7948L131.92 97.7252ZM132.643 107.48C132.643 111.248 132.403 114.48 131.92 117.175L131.526 117.105C132.004 114.44 132.243 111.232 132.243 107.48H132.643ZM131.92 117.175C131.437 119.91 130.691 122.154 129.676 123.901L129.33 123.699C130.315 122.006 131.049 119.81 131.526 117.105L131.92 117.175ZM129.679 123.896C128.703 125.684 127.437 126.996 125.876 127.817L125.69 127.463C127.17 126.684 128.383 125.436 129.328 123.704L129.679 123.896ZM125.88 127.815C124.324 128.675 122.47 129.1 120.323 129.1V128.7C122.417 128.7 124.202 128.285 125.686 127.465L125.88 127.815ZM120.323 129.1C118.137 129.1 116.243 128.675 114.648 127.816L114.838 127.464C116.363 128.285 118.189 128.7 120.323 128.7V129.1ZM114.65 127.817C113.09 126.996 111.805 125.686 110.789 123.899L111.137 123.701C112.122 125.434 113.356 126.684 114.836 127.463L114.65 127.817ZM110.79 123.901C109.775 122.154 109.029 119.91 108.546 117.175L108.94 117.105C109.417 119.81 110.151 122.006 111.136 123.699L110.79 123.901ZM108.546 117.175C108.064 114.48 107.823 111.248 107.823 107.48H108.223C108.223 111.232 108.463 114.44 108.94 117.105L108.546 117.175ZM107.823 107.48C107.823 103.712 108.064 100.46 108.546 97.7252L108.94 97.7948C108.463 100.5 108.223 103.728 108.223 107.48H107.823ZM108.546 97.7252C109.029 94.9914 109.754 92.729 110.728 90.9442L111.079 91.1358C110.132 92.871 109.418 95.0886 108.94 97.7948L108.546 97.7252ZM110.73 90.9395C111.746 89.1928 113.03 87.8849 114.586 87.025L114.78 87.375C113.296 88.1951 112.061 89.4472 111.076 91.1405L110.73 90.9395ZM114.592 87.022C116.186 86.2046 118.079 85.8 120.263 85.8V86.2C118.128 86.2 116.3 86.5954 114.774 87.378L114.592 87.022Z" fill="black"/>
</g>
<g filter="url(#filter2_d_405_19)">
<path d="M38.08 85.2C31.8933 85.2 26.7467 86.4267 22.64 88.88C18.5867 91.3333 15.5467 94.7467 13.52 99.12C11.5467 103.547 10.56 108.72 10.56 114.64C10.56 120.4 11.5467 125.467 13.52 129.84C15.4933 134.267 18.48 137.707 22.48 140.16C26.5333 142.667 31.6267 143.92 37.76 143.92C41.7067 143.92 45.04 143.547 47.76 142.8C50.5333 142.053 52.64 141.013 54.08 139.68C55.52 138.4 56.24 136.907 56.24 135.2C56.24 133.387 55.6533 132 54.48 131.04C53.36 130.133 51.4667 129.573 48.8 129.36C48.8 132.667 48.4 135.333 47.6 137.36C46.8533 139.387 45.6533 140.853 44 141.76C42.3467 142.667 40.16 143.12 37.44 143.12C33.12 143.12 29.6267 142.16 26.96 140.24C24.3467 138.373 22.4267 135.333 21.2 131.12C20.0267 126.96 19.44 121.467 19.44 114.64C19.44 107.76 20.1067 102.213 21.44 98C22.7733 93.84 24.9067 90.8 27.84 88.88C30.7733 86.96 34.6133 86 39.36 86C40.9067 86 42.4 86.1067 43.84 86.32C45.28 86.5867 46.56 86.88 47.68 87.2V106.16C47.68 107.387 47.44 108.4 46.96 109.2C46.48 110 45.7333 110.587 44.72 110.96C43.76 111.387 42.56 111.6 41.12 111.6H40.8V112.4H61.6V111.6H61.28C59.8933 111.6 58.8 111.387 58 110.96C57.2 110.533 56.6133 109.893 56.24 109.04C55.92 108.187 55.76 107.12 55.76 105.84V88.88C53.0933 87.6533 50.3467 86.72 47.52 86.08C44.6933 85.4933 41.5467 85.2 38.08 85.2Z" fill="white" fill-opacity="0.1" shape-rendering="crispEdges"/>
<path d="M22.64 88.88L22.5364 88.7089L22.5374 88.7083L22.64 88.88ZM13.52 99.12L13.3373 99.0386L13.3385 99.0359L13.52 99.12ZM13.52 129.84L13.7023 129.758L13.7027 129.759L13.52 129.84ZM22.48 140.16L22.5846 139.99L22.5852 139.99L22.48 140.16ZM47.76 142.8L47.7071 142.607L47.708 142.607L47.76 142.8ZM54.08 139.68L53.9441 139.533L53.9471 139.531L54.08 139.68ZM54.48 131.04L54.6058 130.885L54.6066 130.885L54.48 131.04ZM48.8 129.36H48.6V129.143L48.816 129.161L48.8 129.36ZM47.6 137.36L47.4123 137.291L47.414 137.287L47.6 137.36ZM44 141.76L43.9038 141.585L43.9038 141.585L44 141.76ZM26.96 140.24L27.0763 140.077L27.0769 140.078L26.96 140.24ZM21.2 131.12L21.008 131.176L21.0075 131.174L21.2 131.12ZM21.44 98L21.2493 97.9397L21.2495 97.939L21.44 98ZM27.84 88.88L27.7305 88.7127L27.7305 88.7127L27.84 88.88ZM43.84 86.32L43.8693 86.122L43.8764 86.1233L43.84 86.32ZM47.68 87.2L47.7349 87.0077L47.88 87.0491V87.2H47.68ZM46.96 109.2L47.1315 109.303L47.1315 109.303L46.96 109.2ZM44.72 110.96L44.6386 110.777L44.6509 110.772L44.72 110.96ZM40.8 111.6H40.6V111.4H40.8V111.6ZM40.8 112.4V112.6H40.6V112.4H40.8ZM61.6 112.4H61.8V112.6H61.6V112.4ZM61.6 111.6V111.4H61.8V111.6H61.6ZM58 110.96L58.0941 110.784L58.0941 110.784L58 110.96ZM56.24 109.04L56.0565 109.12L56.0527 109.11L56.24 109.04ZM55.76 88.88L55.8436 88.6983L55.96 88.7519V88.88H55.76ZM47.52 86.08L47.5607 85.8841L47.5642 85.8849L47.52 86.08ZM38.08 85.4C31.9191 85.4 26.8104 86.6216 22.7426 89.0517L22.5374 88.7083C26.6829 86.2318 31.8676 85 38.08 85V85.4ZM22.7436 89.0511C18.7249 91.4835 15.7117 94.8662 13.7015 99.2041L13.3385 99.0359C15.3816 94.6271 18.4484 91.1832 22.5364 88.7089L22.7436 89.0511ZM13.7027 99.2014C11.743 103.597 10.76 108.742 10.76 114.64H10.36C10.36 108.698 11.3503 103.496 13.3373 99.0386L13.7027 99.2014ZM10.76 114.64C10.76 120.377 11.7427 125.415 13.7023 129.758L13.3377 129.922C11.3506 125.518 10.36 120.423 10.36 114.64H10.76ZM13.7027 129.759C15.6601 134.15 18.6202 137.558 22.5846 139.99L22.3754 140.33C18.3398 137.855 15.3265 134.384 13.3373 129.921L13.7027 129.759ZM22.5852 139.99C26.599 142.472 31.6533 143.72 37.76 143.72V144.12C31.6 144.12 26.4676 142.861 22.3748 140.33L22.5852 139.99ZM37.76 143.72C41.6953 143.72 45.0096 143.348 47.7071 142.607L47.8129 142.993C45.0704 143.746 41.718 144.12 37.76 144.12V143.72ZM47.708 142.607C50.4635 141.865 52.5364 140.837 53.9441 139.533L54.2159 139.827C52.7436 141.19 50.6032 142.242 47.812 142.993L47.708 142.607ZM53.9471 139.531C55.3505 138.283 56.04 136.842 56.04 135.2H56.44C56.44 136.972 55.6895 138.517 54.2129 139.829L53.9471 139.531ZM56.04 135.2C56.04 133.434 55.471 132.109 54.3534 131.195L54.6066 130.885C55.8356 131.891 56.44 133.34 56.44 135.2H56.04ZM54.3542 131.195C53.2826 130.328 51.4401 129.772 48.7841 129.559L48.816 129.161C51.4933 129.375 53.4374 129.939 54.6058 130.885L54.3542 131.195ZM49 129.36C49 132.68 48.5988 135.375 47.786 137.433L47.414 137.287C48.2012 135.292 48.6 132.653 48.6 129.36H49ZM47.7877 137.429C47.0269 139.494 45.7979 141.002 44.0962 141.935L43.9038 141.585C45.5087 140.705 46.6798 139.279 47.4123 137.291L47.7877 137.429ZM44.0962 141.935C42.4032 142.864 40.1797 143.32 37.44 143.32V142.92C40.1403 142.92 42.2902 142.47 43.9038 141.585L44.0962 141.935ZM37.44 143.32C33.0912 143.32 29.5531 142.354 26.8431 140.402L27.0769 140.078C29.7002 141.967 33.1488 142.92 37.44 142.92V143.32ZM26.8438 140.403C24.1825 138.502 22.2426 135.417 21.008 131.176L21.392 131.064C22.6107 135.25 24.5108 138.245 27.0762 140.077L26.8438 140.403ZM21.0075 131.174C19.8272 126.989 19.24 121.476 19.24 114.64H19.64C19.64 121.458 20.2262 126.931 21.3925 131.066L21.0075 131.174ZM19.24 114.64C19.24 107.75 19.9074 102.18 21.2493 97.9397L21.6307 98.0603C20.306 102.246 19.64 107.77 19.64 114.64H19.24ZM21.2495 97.939C22.5933 93.7463 24.7501 90.6634 27.7305 88.7127L27.9495 89.0473C25.0632 90.9366 22.9533 93.9337 21.6305 98.061L21.2495 97.939ZM27.7305 88.7127C30.706 86.765 34.5878 85.8 39.36 85.8V86.2C34.6388 86.2 30.8407 87.155 27.9495 89.0473L27.7305 88.7127ZM39.36 85.8C40.9159 85.8 42.419 85.9073 43.8693 86.1222L43.8107 86.5178C42.381 86.306 40.8975 86.2 39.36 86.2V85.8ZM43.8764 86.1233C45.3212 86.3909 46.6075 86.6856 47.7349 87.0077L47.6251 87.3923C46.5125 87.0744 45.2388 86.7824 43.8036 86.5167L43.8764 86.1233ZM47.88 87.2V106.16H47.48V87.2H47.88ZM47.88 106.16C47.88 107.412 47.6351 108.463 47.1315 109.303L46.7885 109.097C47.2449 108.337 47.48 107.362 47.48 106.16H47.88ZM47.1315 109.303C46.6244 110.148 45.8382 110.761 44.7891 111.148L44.6509 110.772C45.6285 110.412 46.3356 109.852 46.7885 109.097L47.1315 109.303ZM44.8012 111.143C43.808 111.584 42.5782 111.8 41.12 111.8V111.4C42.5418 111.4 43.712 111.189 44.6388 110.777L44.8012 111.143ZM41.12 111.8H40.8V111.4H41.12V111.8ZM41 111.6V112.4H40.6V111.6H41ZM40.8 112.2H61.6V112.6H40.8V112.2ZM61.4 112.4V111.6H61.8V112.4H61.4ZM61.6 111.8H61.28V111.4H61.6V111.8ZM61.28 111.8C59.8764 111.8 58.7462 111.585 57.9059 111.136L58.0941 110.784C58.8538 111.189 59.9103 111.4 61.28 111.4V111.8ZM57.9059 111.136C57.065 110.688 56.4476 110.013 56.0568 109.12L56.4232 108.96C56.7791 109.773 57.335 110.379 58.0941 110.784L57.9059 111.136ZM56.0527 109.11C55.7217 108.227 55.56 107.135 55.56 105.84H55.96C55.96 107.105 56.1183 108.146 56.4273 108.97L56.0527 109.11ZM55.56 105.84V88.88H55.96V105.84H55.56ZM55.6764 89.0617C53.0222 87.8408 50.2888 86.912 47.4758 86.2751L47.5642 85.8849C50.4046 86.528 53.1644 87.4659 55.8436 88.6983L55.6764 89.0617ZM47.4794 86.2758C44.6684 85.6924 41.5356 85.4 38.08 85.4V85C41.5577 85 44.7183 85.2942 47.5606 85.8842L47.4794 86.2758Z" fill="black"/>
</g>
<g filter="url(#filter3_d_405_19)">
<path d="M153.92 85.2C160.107 85.2 165.253 86.4267 169.36 88.88C173.413 91.3333 176.453 94.7467 178.48 99.12C180.453 103.547 181.44 108.72 181.44 114.64C181.44 120.4 180.453 125.467 178.48 129.84C176.507 134.267 173.52 137.707 169.52 140.16C165.467 142.667 160.373 143.92 154.24 143.92C150.293 143.92 146.96 143.547 144.24 142.8C141.467 142.053 139.36 141.013 137.92 139.68C136.48 138.4 135.76 136.907 135.76 135.2C135.76 133.387 136.347 132 137.52 131.04C138.64 130.133 140.533 129.573 143.2 129.36C143.2 132.667 143.6 135.333 144.4 137.36C145.147 139.387 146.347 140.853 148 141.76C149.653 142.667 151.84 143.12 154.56 143.12C158.88 143.12 162.373 142.16 165.04 140.24C167.653 138.373 169.573 135.333 170.8 131.12C171.973 126.96 172.56 121.467 172.56 114.64C172.56 107.76 171.893 102.213 170.56 98C169.227 93.84 167.093 90.8 164.16 88.88C161.227 86.96 157.387 86 152.64 86C151.093 86 149.6 86.1067 148.16 86.32C146.72 86.5867 145.44 86.88 144.32 87.2V106.16C144.32 107.387 144.56 108.4 145.04 109.2C145.52 110 146.267 110.587 147.28 110.96C148.24 111.387 149.44 111.6 150.88 111.6H151.2V112.4H130.4V111.6H130.72C132.107 111.6 133.2 111.387 134 110.96C134.8 110.533 135.387 109.893 135.76 109.04C136.08 108.187 136.24 107.12 136.24 105.84V88.88C138.907 87.6533 141.653 86.72 144.48 86.08C147.307 85.4933 150.453 85.2 153.92 85.2Z" fill="white" fill-opacity="0.1" shape-rendering="crispEdges"/>
<path d="M169.36 88.88L169.464 88.7089L169.463 88.7083L169.36 88.88ZM178.48 99.12L178.663 99.0386L178.661 99.0359L178.48 99.12ZM178.48 129.84L178.298 129.758L178.297 129.759L178.48 129.84ZM169.52 140.16L169.415 139.99L169.415 139.99L169.52 140.16ZM144.24 142.8L144.293 142.607L144.292 142.607L144.24 142.8ZM137.92 139.68L138.056 139.533L138.053 139.531L137.92 139.68ZM137.52 131.04L137.394 130.885L137.393 130.885L137.52 131.04ZM143.2 129.36H143.4V129.143L143.184 129.161L143.2 129.36ZM144.4 137.36L144.588 137.291L144.586 137.287L144.4 137.36ZM148 141.76L148.096 141.585L148.096 141.585L148 141.76ZM165.04 140.24L164.924 140.077L164.923 140.078L165.04 140.24ZM170.8 131.12L170.992 131.176L170.992 131.174L170.8 131.12ZM170.56 98L170.751 97.9397L170.75 97.939L170.56 98ZM164.16 88.88L164.27 88.7127L164.27 88.7127L164.16 88.88ZM148.16 86.32L148.131 86.122L148.124 86.1233L148.16 86.32ZM144.32 87.2L144.265 87.0077L144.12 87.0491V87.2H144.32ZM145.04 109.2L144.868 109.303L144.868 109.303L145.04 109.2ZM147.28 110.96L147.361 110.777L147.349 110.772L147.28 110.96ZM151.2 111.6H151.4V111.4H151.2V111.6ZM151.2 112.4V112.6H151.4V112.4H151.2ZM130.4 112.4H130.2V112.6H130.4V112.4ZM130.4 111.6V111.4H130.2V111.6H130.4ZM134 110.96L133.906 110.784L133.906 110.784L134 110.96ZM135.76 109.04L135.943 109.12L135.947 109.11L135.76 109.04ZM136.24 88.88L136.156 88.6983L136.04 88.7519V88.88H136.24ZM144.48 86.08L144.439 85.8841L144.436 85.8849L144.48 86.08ZM153.92 85.4C160.081 85.4 165.19 86.6216 169.257 89.0517L169.463 88.7083C165.317 86.2318 160.132 85 153.92 85V85.4ZM169.256 89.0511C173.275 91.4835 176.288 94.8662 178.299 99.2041L178.661 99.0359C176.618 94.6271 173.552 91.1832 169.464 88.7089L169.256 89.0511ZM178.297 99.2014C180.257 103.597 181.24 108.742 181.24 114.64H181.64C181.64 108.698 180.65 103.496 178.663 99.0386L178.297 99.2014ZM181.24 114.64C181.24 120.377 180.257 125.415 178.298 129.758L178.662 129.922C180.649 125.518 181.64 120.423 181.64 114.64H181.24ZM178.297 129.759C176.34 134.15 173.38 137.558 169.415 139.99L169.625 140.33C173.66 137.855 176.673 134.384 178.663 129.921L178.297 129.759ZM169.415 139.99C165.401 142.472 160.347 143.72 154.24 143.72V144.12C160.4 144.12 165.532 142.861 169.625 140.33L169.415 139.99ZM154.24 143.72C150.305 143.72 146.99 143.348 144.293 142.607L144.187 142.993C146.93 143.746 150.282 144.12 154.24 144.12V143.72ZM144.292 142.607C141.537 141.865 139.464 140.837 138.056 139.533L137.784 139.827C139.256 141.19 141.397 142.242 144.188 142.993L144.292 142.607ZM138.053 139.531C136.649 138.283 135.96 136.842 135.96 135.2H135.56C135.56 136.972 136.311 138.517 137.787 139.829L138.053 139.531ZM135.96 135.2C135.96 133.434 136.529 132.109 137.647 131.195L137.393 130.885C136.164 131.891 135.56 133.34 135.56 135.2H135.96ZM137.646 131.195C138.717 130.328 140.56 129.772 143.216 129.559L143.184 129.161C140.507 129.375 138.563 129.939 137.394 130.885L137.646 131.195ZM143 129.36C143 132.68 143.401 135.375 144.214 137.433L144.586 137.287C143.799 135.292 143.4 132.653 143.4 129.36H143ZM144.212 137.429C144.973 139.494 146.202 141.002 147.904 141.935L148.096 141.585C146.491 140.705 145.32 139.279 144.588 137.291L144.212 137.429ZM147.904 141.935C149.597 142.864 151.82 143.32 154.56 143.32V142.92C151.86 142.92 149.71 142.47 148.096 141.585L147.904 141.935ZM154.56 143.32C158.909 143.32 162.447 142.354 165.157 140.402L164.923 140.078C162.3 141.967 158.851 142.92 154.56 142.92V143.32ZM165.156 140.403C167.817 138.502 169.757 135.417 170.992 131.176L170.608 131.064C169.389 135.25 167.489 138.245 164.924 140.077L165.156 140.403ZM170.992 131.174C172.173 126.989 172.76 121.476 172.76 114.64H172.36C172.36 121.458 171.774 126.931 170.608 131.066L170.992 131.174ZM172.76 114.64C172.76 107.75 172.093 102.18 170.751 97.9397L170.369 98.0603C171.694 102.246 172.36 107.77 172.36 114.64H172.76ZM170.75 97.939C169.407 93.7463 167.25 90.6634 164.27 88.7127L164.05 89.0473C166.937 90.9366 169.047 93.9337 170.37 98.061L170.75 97.939ZM164.27 88.7127C161.294 86.765 157.412 85.8 152.64 85.8V86.2C157.361 86.2 161.159 87.155 164.05 89.0473L164.27 88.7127ZM152.64 85.8C151.084 85.8 149.581 85.9073 148.131 86.1222L148.189 86.5178C149.619 86.306 151.103 86.2 152.64 86.2V85.8ZM148.124 86.1233C146.679 86.3909 145.392 86.6856 144.265 87.0077L144.375 87.3923C145.488 87.0744 146.761 86.7824 148.196 86.5167L148.124 86.1233ZM144.12 87.2V106.16H144.52V87.2H144.12ZM144.12 106.16C144.12 107.412 144.365 108.463 144.868 109.303L145.211 109.097C144.755 108.337 144.52 107.362 144.52 106.16H144.12ZM144.868 109.303C145.376 110.148 146.162 110.761 147.211 111.148L147.349 110.772C146.372 110.412 145.664 109.852 145.211 109.097L144.868 109.303ZM147.199 111.143C148.192 111.584 149.422 111.8 150.88 111.8V111.4C149.458 111.4 148.288 111.189 147.361 110.777L147.199 111.143ZM150.88 111.8H151.2V111.4H150.88V111.8ZM151 111.6V112.4H151.4V111.6H151ZM151.2 112.2H130.4V112.6H151.2V112.2ZM130.6 112.4V111.6H130.2V112.4H130.6ZM130.4 111.8H130.72V111.4H130.4V111.8ZM130.72 111.8C132.124 111.8 133.254 111.585 134.094 111.136L133.906 110.784C133.146 111.189 132.09 111.4 130.72 111.4V111.8ZM134.094 111.136C134.935 110.688 135.552 110.013 135.943 109.12L135.577 108.96C135.221 109.773 134.665 110.379 133.906 110.784L134.094 111.136ZM135.947 109.11C136.278 108.227 136.44 107.135 136.44 105.84H136.04C136.04 107.105 135.882 108.146 135.573 108.97L135.947 109.11ZM136.44 105.84V88.88H136.04V105.84H136.44ZM136.324 89.0617C138.978 87.8408 141.711 86.912 144.524 86.2751L144.436 85.8849C141.595 86.528 138.836 87.4659 136.156 88.6983L136.324 89.0617ZM144.521 86.2758C147.332 85.6924 150.464 85.4 153.92 85.4V85C150.442 85 147.282 85.2942 144.439 85.8842L144.521 86.2758Z" fill="black"/>
</g>
</g>
<g filter="url(#filter4_d_405_19)">
<path d="M51.28 86V85.4H52.06C53.14 85.4 54.04 85.24 54.76 84.92C55.52 84.6 56.08 84.12 56.44 83.48C56.8 82.84 56.98 82.04 56.98 81.08V47.84C56.98 46.92 56.8 46.16 56.44 45.56C56.08 44.96 55.52 44.52 54.76 44.24C54.04 43.92 53.14 43.76 52.06 43.76H51.28V43.16H67.42C70.9 43.16 73.78 43.6 76.06 44.48C78.34 45.32 80.04 46.58 81.16 48.26C82.28 49.94 82.84 51.98 82.84 54.38C82.84 56.7 82.36 58.62 81.4 60.14C80.48 61.62 79.28 62.78 77.8 63.62C76.36 64.46 74.86 65.1 73.3 65.54L81.76 78.74C82.6 80.02 83.32 81.1 83.92 81.98C84.56 82.82 85.14 83.5 85.66 84.02C86.18 84.5 86.66 84.86 87.1 85.1C87.58 85.3 88.06 85.4 88.54 85.4H88.72V86H87.88C86 86 84.44 85.94 83.2 85.82C82 85.66 81 85.4 80.2 85.04C79.4 84.68 78.68 84.16 78.04 83.48C77.44 82.76 76.78 81.84 76.06 80.72L66.82 66.02H63.04V81.08C63.04 82.04 63.22 82.84 63.58 83.48C63.94 84.12 64.48 84.6 65.2 84.92C65.96 85.24 66.88 85.4 67.96 85.4H68.74V86H51.28ZM67.24 65.42C69.48 65.42 71.26 65.08 72.58 64.4C73.94 63.68 74.92 62.54 75.52 60.98C76.12 59.42 76.42 57.36 76.42 54.8C76.42 52.16 76.1 50.04 75.46 48.44C74.86 46.8 73.88 45.62 72.52 44.9C71.16 44.14 69.36 43.76 67.12 43.76H63.04V65.42H67.24ZM120.263 86.6C116.023 86.6 112.503 85.68 109.703 83.84C106.903 82 104.803 79.42 103.403 76.1C102.043 72.78 101.363 68.9 101.363 64.46C101.363 60.02 102.043 56.16 103.403 52.88C104.803 49.6 106.903 47.06 109.703 45.26C112.543 43.42 116.083 42.5 120.323 42.5C124.363 42.5 127.763 43.42 130.523 45.26C133.323 47.06 135.443 49.62 136.883 52.94C138.363 56.22 139.103 60.08 139.103 64.52C139.103 68.96 138.363 72.84 136.883 76.16C135.443 79.44 133.323 82 130.523 83.84C127.723 85.68 124.303 86.6 120.263 86.6ZM120.263 86C122.383 86 124.203 85.6 125.723 84.8C127.283 83.96 128.543 82.68 129.503 80.96C130.503 79.2 131.243 76.96 131.723 74.24C132.203 71.52 132.443 68.28 132.443 64.52C132.443 60.76 132.203 57.54 131.723 54.86C131.243 52.14 130.503 49.92 129.503 48.2C128.543 46.44 127.303 45.16 125.783 44.36C124.263 43.52 122.443 43.1 120.323 43.1C118.163 43.1 116.303 43.52 114.743 44.36C113.223 45.16 111.963 46.44 110.963 48.2C109.963 49.92 109.223 52.14 108.743 54.86C108.263 57.54 108.023 60.76 108.023 64.52C108.023 68.28 108.263 71.52 108.743 74.24C109.223 76.96 109.943 79.2 110.903 80.96C111.903 82.68 113.163 83.96 114.683 84.8C116.243 85.6 118.103 86 120.263 86Z" fill="white"/>
<path d="M51.28 86H51.08V86.2H51.28V86ZM51.28 85.4V85.2H51.08V85.4H51.28ZM54.76 84.92L54.6824 84.7356L54.6788 84.7372L54.76 84.92ZM56.44 83.48L56.6143 83.5781L56.6143 83.5781L56.44 83.48ZM56.44 45.56L56.6115 45.4571L56.6115 45.4571L56.44 45.56ZM54.76 44.24L54.6786 44.4231L54.6909 44.4277L54.76 44.24ZM51.28 43.76H51.08V43.96H51.28V43.76ZM51.28 43.16V42.96H51.08V43.16H51.28ZM76.06 44.48L75.988 44.6666L75.9909 44.6677L76.06 44.48ZM81.16 48.26L80.9936 48.3709L81.16 48.26ZM81.4 60.14L81.2309 60.0332L81.2301 60.0344L81.4 60.14ZM77.8 63.62L77.7013 63.446L77.6992 63.4472L77.8 63.62ZM73.3 65.54L73.2457 65.3475L72.986 65.4208L73.1316 65.6479L73.3 65.54ZM81.76 78.74L81.5916 78.8479L81.5928 78.8497L81.76 78.74ZM83.92 81.98L83.7545 82.0928L83.7609 82.1012L83.92 81.98ZM85.66 84.02L85.5185 84.1615L85.5243 84.167L85.66 84.02ZM87.1 85.1L87.0042 85.2756L87.0134 85.2806L87.0231 85.2846L87.1 85.1ZM88.72 85.4H88.92V85.2H88.72V85.4ZM88.72 86V86.2H88.92V86H88.72ZM83.2 85.82L83.1736 86.0184L83.1807 86.0191L83.2 85.82ZM80.2 85.04L80.2821 84.8576L80.2821 84.8576L80.2 85.04ZM78.04 83.48L77.8861 83.6083L77.8944 83.6171L78.04 83.48ZM76.06 80.72L75.8907 80.8264L75.8918 80.8282L76.06 80.72ZM66.82 66.02L66.9893 65.9136L66.9305 65.82H66.82V66.02ZM63.04 66.02V65.82H62.84V66.02H63.04ZM63.58 83.48L63.7543 83.3819L63.7543 83.3819L63.58 83.48ZM65.2 84.92L65.1188 85.1028L65.1224 85.1043L65.2 84.92ZM68.74 85.4H68.94V85.2H68.74V85.4ZM68.74 86V86.2H68.94V86H68.74ZM72.58 64.4L72.6716 64.5778L72.6736 64.5768L72.58 64.4ZM75.52 60.98L75.7067 61.0518L75.7067 61.0518L75.52 60.98ZM75.46 48.44L75.2721 48.5087L75.2743 48.5143L75.46 48.44ZM72.52 44.9L72.4224 45.0746L72.4264 45.0768L72.52 44.9ZM63.04 43.76V43.56H62.84V43.76H63.04ZM63.04 65.42H62.84V65.62H63.04V65.42ZM51.48 86V85.4H51.08V86H51.48ZM51.28 85.6H52.06V85.2H51.28V85.6ZM52.06 85.6C53.1582 85.6 54.088 85.4375 54.8412 85.1028L54.6788 84.7372C53.992 85.0425 53.1218 85.2 52.06 85.2V85.6ZM54.8376 85.1043C55.6332 84.7693 56.2299 84.2615 56.6143 83.5781L56.2657 83.3819C55.9301 83.9785 55.4068 84.4307 54.6824 84.7357L54.8376 85.1043ZM56.6143 83.5781C56.9956 82.9003 57.18 82.0641 57.18 81.08H56.78C56.78 82.0159 56.6044 82.7797 56.2657 83.3819L56.6143 83.5781ZM57.18 81.08V47.84H56.78V81.08H57.18ZM57.18 47.84C57.18 46.8949 56.9951 46.0965 56.6115 45.4571L56.2685 45.6629C56.6049 46.2235 56.78 46.9451 56.78 47.84H57.18ZM56.6115 45.4571C56.2244 44.812 55.6249 44.3455 54.8291 44.0523L54.6909 44.4277C55.4151 44.6945 55.9356 45.108 56.2685 45.6629L56.6115 45.4571ZM54.8412 44.0572C54.088 43.7225 53.1582 43.56 52.06 43.56V43.96C53.1218 43.96 53.992 44.1175 54.6788 44.4228L54.8412 44.0572ZM52.06 43.56H51.28V43.96H52.06V43.56ZM51.48 43.76V43.16H51.08V43.76H51.48ZM51.28 43.36H67.42V42.96H51.28V43.36ZM67.42 43.36C70.885 43.36 73.7385 43.7984 75.988 44.6666L76.132 44.2934C73.8215 43.4016 70.915 42.96 67.42 42.96V43.36ZM75.9909 44.6677C78.2394 45.4961 79.9015 46.7329 80.9936 48.3709L81.3264 48.1491C80.1785 46.4271 78.4406 45.1439 76.1291 44.2923L75.9909 44.6677ZM80.9936 48.3709C82.0878 50.0123 82.64 52.0119 82.64 54.38H83.04C83.04 51.9481 82.4722 49.8677 81.3264 48.1491L80.9936 48.3709ZM82.64 54.38C82.64 56.673 82.1656 58.5532 81.2309 60.0332L81.5691 60.2468C82.5544 58.6868 83.04 56.727 83.04 54.38H82.64ZM81.2301 60.0344C80.3273 61.4868 79.1515 62.623 77.7013 63.4461L77.8987 63.7939C79.4085 62.937 80.6327 61.7532 81.5699 60.2456L81.2301 60.0344ZM77.6992 63.4472C76.2734 64.279 74.789 64.9122 73.2457 65.3475L73.3543 65.7325C74.931 65.2878 76.4466 64.641 77.9008 63.7928L77.6992 63.4472ZM73.1316 65.6479L81.5916 78.8479L81.9284 78.6321L73.4684 65.4321L73.1316 65.6479ZM81.5928 78.8497C82.4332 80.1303 83.1539 81.2114 83.7548 82.0927L84.0852 81.8673C83.4861 80.9886 82.7668 79.9097 81.9272 78.6303L81.5928 78.8497ZM83.7609 82.1012C84.4042 82.9455 84.9902 83.633 85.5186 84.1614L85.8014 83.8786C85.2898 83.367 84.7158 82.6945 84.0791 81.8588L83.7609 82.1012ZM85.5243 84.167C86.0519 84.6539 86.5453 85.0252 87.0042 85.2756L87.1958 84.9244C86.7747 84.6948 86.3081 84.3461 85.7957 83.873L85.5243 84.167ZM87.0231 85.2846C87.5254 85.4939 88.0315 85.6 88.54 85.6V85.2C88.0885 85.2 87.6346 85.1061 87.1769 84.9154L87.0231 85.2846ZM88.54 85.6H88.72V85.2H88.54V85.6ZM88.52 85.4V86H88.92V85.4H88.52ZM88.72 85.8H87.88V86.2H88.72V85.8ZM87.88 85.8C86.0036 85.8 84.4505 85.7401 83.2193 85.6209L83.1807 86.0191C84.4295 86.1399 85.9964 86.2 87.88 86.2V85.8ZM83.2264 85.6218C82.0389 85.4634 81.0591 85.2073 80.2821 84.8576L80.1179 85.2224C80.9409 85.5927 81.9611 85.8566 83.1736 86.0182L83.2264 85.6218ZM80.2821 84.8576C79.5075 84.5091 78.8088 84.005 78.1856 83.3429L77.8944 83.6171C78.5512 84.315 79.2925 84.8509 80.1179 85.2224L80.2821 84.8576ZM78.1936 83.352C77.6006 82.6403 76.9455 81.7275 76.2282 80.6118L75.8918 80.8282C76.6145 81.9525 77.2794 82.8797 77.8864 83.608L78.1936 83.352ZM76.2293 80.6136L66.9893 65.9136L66.6507 66.1264L75.8907 80.8264L76.2293 80.6136ZM66.82 65.82H63.04V66.22H66.82V65.82ZM62.84 66.02V81.08H63.24V66.02H62.84ZM62.84 81.08C62.84 82.0641 63.0244 82.9003 63.4057 83.5781L63.7543 83.3819C63.4156 82.7797 63.24 82.0159 63.24 81.08H62.84ZM63.4057 83.5781C63.7884 84.2584 64.3625 84.7666 65.1188 85.1028L65.2812 84.7372C64.5975 84.4334 64.0916 83.9816 63.7543 83.3819L63.4057 83.5781ZM65.1224 85.1043C65.9133 85.4373 66.8612 85.6 67.96 85.6V85.2C66.8988 85.2 66.0067 85.0427 65.2776 84.7357L65.1224 85.1043ZM67.96 85.6H68.74V85.2H67.96V85.6ZM68.54 85.4V86H68.94V85.4H68.54ZM68.74 85.8H51.28V86.2H68.74V85.8ZM67.24 65.62C69.497 65.62 71.3125 65.2779 72.6716 64.5778L72.4884 64.2222C71.2075 64.8821 69.463 65.22 67.24 65.22V65.62ZM72.6736 64.5768C74.0801 63.8321 75.0909 62.6527 75.7067 61.0518L75.3333 60.9082C74.7491 62.4273 73.7999 63.5279 72.4864 64.2232L72.6736 64.5768ZM75.7067 61.0518C76.3189 59.4601 76.62 57.3729 76.62 54.8H76.22C76.22 57.3471 75.9211 59.3799 75.3333 60.9082L75.7067 61.0518ZM76.62 54.8C76.62 52.1467 76.2988 49.9985 75.6457 48.3657L75.2743 48.5143C75.9012 50.0815 76.22 52.1733 76.22 54.8H76.62ZM75.6478 48.3713C75.0333 46.6916 74.0232 45.4695 72.6136 44.7232L72.4264 45.0768C73.7368 45.7705 74.6867 46.9084 75.2722 48.5087L75.6478 48.3713ZM72.6176 44.7254C71.2175 43.943 69.3801 43.56 67.12 43.56V43.96C69.3399 43.96 71.1025 44.337 72.4224 45.0746L72.6176 44.7254ZM67.12 43.56H63.04V43.96H67.12V43.56ZM62.84 43.76V65.42H63.24V43.76H62.84ZM63.04 65.62H67.24V65.22H63.04V65.62ZM109.703 83.84L109.813 83.6729L109.813 83.6729L109.703 83.84ZM103.403 76.1L103.218 76.1758L103.219 76.1777L103.403 76.1ZM103.403 52.88L103.219 52.8015L103.218 52.8034L103.403 52.88ZM109.703 45.26L109.811 45.4282L109.812 45.4278L109.703 45.26ZM130.523 45.26L130.412 45.4264L130.415 45.4282L130.523 45.26ZM136.883 52.94L136.7 53.0196L136.701 53.0223L136.883 52.94ZM136.883 76.16L136.7 76.0786L136.7 76.0796L136.883 76.16ZM130.523 83.84L130.633 84.0071L130.633 84.0071L130.523 83.84ZM125.723 84.8L125.816 84.977L125.818 84.9761L125.723 84.8ZM129.503 80.96L129.329 80.8612L129.328 80.8625L129.503 80.96ZM131.723 74.24L131.92 74.2748L131.92 74.2748L131.723 74.24ZM131.723 54.86L131.526 54.8948L131.526 54.8953L131.723 54.86ZM129.503 48.2L129.327 48.2958L129.33 48.3005L129.503 48.2ZM125.783 44.36L125.686 44.5351L125.69 44.537L125.783 44.36ZM114.743 44.36L114.836 44.537L114.838 44.5361L114.743 44.36ZM110.963 48.2L111.136 48.3005L111.137 48.2988L110.963 48.2ZM108.743 54.86L108.94 54.8953L108.94 54.8948L108.743 54.86ZM108.743 74.24L108.546 74.2748L108.546 74.2748L108.743 74.24ZM110.903 80.96L110.727 81.0558L110.73 81.0605L110.903 80.96ZM114.683 84.8L114.586 84.9751L114.592 84.978L114.683 84.8ZM120.263 86.4C116.052 86.4 112.573 85.4864 109.813 83.6729L109.593 84.0071C112.434 85.8736 115.994 86.8 120.263 86.8V86.4ZM109.813 83.6729C107.049 81.8563 104.973 79.3086 103.587 76.0223L103.219 76.1777C104.633 79.5314 106.758 82.1437 109.593 84.0071L109.813 83.6729ZM103.588 76.0242C102.24 72.7332 101.563 68.88 101.563 64.46H101.163C101.163 68.92 101.846 72.8268 103.218 76.1758L103.588 76.0242ZM101.563 64.46C101.563 60.0399 102.24 56.2071 103.588 52.9566L103.218 52.8034C101.846 56.1129 101.163 60.0001 101.163 64.46H101.563ZM103.587 52.9585C104.973 49.7126 107.047 47.205 109.811 45.4282L109.595 45.0918C106.759 46.915 104.634 49.4874 103.219 52.8015L103.587 52.9585ZM109.812 45.4278C112.612 43.6136 116.112 42.7 120.323 42.7V42.3C116.054 42.3 112.474 43.2264 109.594 45.0921L109.812 45.4278ZM120.323 42.7C124.332 42.7 127.692 43.6127 130.412 45.4264L130.634 45.0936C127.835 43.2273 124.394 42.3 120.323 42.3V42.7ZM130.415 45.4282C133.179 47.2049 135.274 49.7326 136.7 53.0196L137.067 52.8604C135.612 49.5074 133.468 46.9151 130.631 45.0918L130.415 45.4282ZM136.701 53.0223C138.167 56.2711 138.903 60.1019 138.903 64.52H139.303C139.303 60.0581 138.559 56.1689 137.065 52.8577L136.701 53.0223ZM138.903 64.52C138.903 68.938 138.167 72.7892 136.7 76.0786L137.066 76.2414C138.559 72.8908 139.303 68.982 139.303 64.52H138.903ZM136.7 76.0796C135.274 79.3268 133.179 81.8556 130.413 83.6729L130.633 84.0071C133.468 82.1444 135.612 79.5532 137.066 76.2404L136.7 76.0796ZM130.413 83.6729C127.652 85.4874 124.272 86.4 120.263 86.4V86.8C124.334 86.8 127.794 85.8726 130.633 84.0071L130.413 83.6729ZM120.263 86.2C122.408 86.2 124.262 85.7952 125.816 84.977L125.63 84.623C124.145 85.4048 122.358 85.8 120.263 85.8V86.2ZM125.818 84.9761C127.415 84.116 128.701 82.8069 129.678 81.0575L129.328 80.8625C128.385 82.5531 127.151 83.804 125.628 84.6239L125.818 84.9761ZM129.677 81.0588C130.692 79.2731 131.437 77.0096 131.92 74.2748L131.526 74.2052C131.049 76.9104 130.315 79.1268 129.329 80.8612L129.677 81.0588ZM131.92 74.2748C132.403 71.54 132.643 68.2878 132.643 64.52H132.243C132.243 68.2722 132.004 71.5 131.526 74.2052L131.92 74.2748ZM132.643 64.52C132.643 60.7523 132.403 57.5198 131.92 54.8247L131.526 54.8953C132.004 57.5602 132.243 60.7677 132.243 64.52H132.643ZM131.92 54.8252C131.437 52.0904 130.691 49.846 129.676 48.0995L129.33 48.3005C130.315 49.994 131.049 52.1896 131.526 54.8948L131.92 54.8252ZM129.679 48.1042C128.703 46.3155 127.437 45.0043 125.876 44.183L125.69 44.537C127.17 45.3157 128.383 46.5645 129.328 48.2958L129.679 48.1042ZM125.88 44.185C124.324 43.3253 122.47 42.9 120.323 42.9V43.3C122.417 43.3 124.202 43.7147 125.686 44.535L125.88 44.185ZM120.323 42.9C118.137 42.9 116.243 43.3251 114.648 44.1839L114.838 44.5361C116.363 43.7149 118.189 43.3 120.323 43.3V42.9ZM114.65 44.183C113.09 45.0038 111.805 46.314 110.789 48.1012L111.137 48.2988C112.122 46.566 113.356 45.3162 114.836 44.537L114.65 44.183ZM110.79 48.0995C109.775 49.846 109.029 52.0904 108.546 54.8252L108.94 54.8948C109.417 52.1896 110.151 49.994 111.136 48.3005L110.79 48.0995ZM108.546 54.8247C108.064 57.5198 107.823 60.7523 107.823 64.52H108.223C108.223 60.7677 108.463 57.5602 108.94 54.8953L108.546 54.8247ZM107.823 64.52C107.823 68.2878 108.064 71.54 108.546 74.2748L108.94 74.2052C108.463 71.5 108.223 68.2722 108.223 64.52H107.823ZM108.546 74.2748C109.029 77.0086 109.754 79.271 110.728 81.0558L111.079 80.8642C110.132 79.129 109.418 76.9114 108.94 74.2052L108.546 74.2748ZM110.73 81.0605C111.746 82.8072 113.03 84.1151 114.586 84.975L114.78 84.625C113.296 83.8049 112.061 82.5528 111.076 80.8595L110.73 81.0605ZM114.592 84.978C116.186 85.7954 118.079 86.2 120.263 86.2V85.8C118.128 85.8 116.3 85.4046 114.774 84.622L114.592 84.978Z" fill="black"/>
</g>
<g filter="url(#filter5_d_405_19)">
<path d="M38.08 86.8C31.8933 86.8 26.7467 85.5733 22.64 83.12C18.5867 80.6667 15.5467 77.2533 13.52 72.88C11.5467 68.4533 10.56 63.28 10.56 57.36C10.56 51.6 11.5467 46.5333 13.52 42.16C15.4933 37.7333 18.48 34.2933 22.48 31.84C26.5333 29.3333 31.6267 28.08 37.76 28.08C41.7067 28.08 45.04 28.4533 47.76 29.2C50.5333 29.9467 52.64 30.9867 54.08 32.32C55.52 33.6 56.24 35.0933 56.24 36.8C56.24 38.6133 55.6533 40 54.48 40.96C53.36 41.8667 51.4667 42.4267 48.8 42.64C48.8 39.3333 48.4 36.6667 47.6 34.64C46.8533 32.6133 45.6533 31.1467 44 30.24C42.3467 29.3333 40.16 28.88 37.44 28.88C33.12 28.88 29.6267 29.84 26.96 31.76C24.3467 33.6267 22.4267 36.6667 21.2 40.88C20.0267 45.04 19.44 50.5333 19.44 57.36C19.44 64.24 20.1067 69.7867 21.44 74C22.7733 78.16 24.9067 81.2 27.84 83.12C30.7733 85.04 34.6133 86 39.36 86C40.9067 86 42.4 85.8933 43.84 85.68C45.28 85.4133 46.56 85.12 47.68 84.8V65.84C47.68 64.6133 47.44 63.6 46.96 62.8C46.48 62 45.7333 61.4133 44.72 61.04C43.76 60.6133 42.56 60.4 41.12 60.4H40.8V59.6H61.6V60.4H61.28C59.8933 60.4 58.8 60.6133 58 61.04C57.2 61.4667 56.6133 62.1067 56.24 62.96C55.92 63.8133 55.76 64.88 55.76 66.16V83.12C53.0933 84.3467 50.3467 85.28 47.52 85.92C44.6933 86.5067 41.5467 86.8 38.08 86.8Z" fill="white"/>
<path d="M22.64 83.12L22.5364 83.2911L22.5374 83.2917L22.64 83.12ZM13.52 72.88L13.3373 72.9614L13.3385 72.9641L13.52 72.88ZM13.52 42.16L13.7023 42.2423L13.7027 42.2414L13.52 42.16ZM22.48 31.84L22.5846 32.0105L22.5852 32.0101L22.48 31.84ZM47.76 29.2L47.7071 29.3929L47.708 29.3931L47.76 29.2ZM54.08 32.32L53.9441 32.4668L53.9471 32.4695L54.08 32.32ZM54.48 40.96L54.6058 41.1154L54.6066 41.1148L54.48 40.96ZM48.8 42.64H48.6V42.8566L48.816 42.8394L48.8 42.64ZM47.6 34.64L47.4123 34.7092L47.414 34.7134L47.6 34.64ZM44 30.24L43.9038 30.4154L43.9038 30.4154L44 30.24ZM26.96 31.76L27.0763 31.9227L27.0769 31.9223L26.96 31.76ZM21.2 40.88L21.008 40.8241L21.0075 40.8257L21.2 40.88ZM21.44 74L21.2493 74.0603L21.2495 74.061L21.44 74ZM27.84 83.12L27.7305 83.2873L27.7305 83.2873L27.84 83.12ZM43.84 85.68L43.8693 85.878L43.8764 85.8767L43.84 85.68ZM47.68 84.8L47.7349 84.9923L47.88 84.9509V84.8H47.68ZM46.96 62.8L47.1315 62.6971L47.1315 62.6971L46.96 62.8ZM44.72 61.04L44.6386 61.2232L44.6509 61.2277L44.72 61.04ZM40.8 60.4H40.6V60.6H40.8V60.4ZM40.8 59.6V59.4H40.6V59.6H40.8ZM61.6 59.6H61.8V59.4H61.6V59.6ZM61.6 60.4V60.6H61.8V60.4H61.6ZM58 61.04L58.0941 61.2165L58.0941 61.2165L58 61.04ZM56.24 62.96L56.0565 62.8797L56.0527 62.8898L56.24 62.96ZM55.76 83.12L55.8436 83.3017L55.96 83.2481V83.12H55.76ZM47.52 85.92L47.5607 86.1159L47.5642 86.1151L47.52 85.92ZM38.08 86.6C31.9191 86.6 26.8104 85.3784 22.7426 82.9483L22.5374 83.2917C26.6829 85.7682 31.8676 87 38.08 87V86.6ZM22.7436 82.9489C18.7249 80.5165 15.7117 77.1338 13.7015 72.7959L13.3385 72.9641C15.3816 77.3729 18.4484 80.8168 22.5364 83.2911L22.7436 82.9489ZM13.7027 72.7986C11.743 68.4025 10.76 63.258 10.76 57.36H10.36C10.36 63.302 11.3503 68.5041 13.3373 72.9614L13.7027 72.7986ZM10.76 57.36C10.76 51.6228 11.7427 46.5851 13.7023 42.2423L13.3377 42.0777C11.3506 46.4816 10.36 51.5772 10.36 57.36H10.76ZM13.7027 42.2414C15.6601 37.8504 18.6202 34.442 22.5846 32.0105L22.3754 31.6695C18.3398 34.1447 15.3265 37.6163 13.3373 42.0786L13.7027 42.2414ZM22.5852 32.0101C26.599 29.5278 31.6533 28.28 37.76 28.28V27.88C31.6 27.88 26.4676 29.1388 22.3748 31.6699L22.5852 32.0101ZM37.76 28.28C41.6953 28.28 45.0096 28.6524 47.7071 29.3929L47.8129 29.0071C45.0704 28.2543 41.718 27.88 37.76 27.88V28.28ZM47.708 29.3931C50.4635 30.135 52.5364 31.1633 53.9441 32.4668L54.2159 32.1732C52.7436 30.81 50.6032 29.7583 47.812 29.0069L47.708 29.3931ZM53.9471 32.4695C55.3505 33.717 56.04 35.1582 56.04 36.8H56.44C56.44 35.0285 55.6895 33.483 54.2129 32.1705L53.9471 32.4695ZM56.04 36.8C56.04 38.5664 55.471 39.8907 54.3534 40.8052L54.6066 41.1148C55.8356 40.1093 56.44 38.6603 56.44 36.8H56.04ZM54.3542 40.8045C53.2826 41.672 51.4401 42.2282 48.7841 42.4406L48.816 42.8394C51.4933 42.6252 53.4374 42.0613 54.6058 41.1154L54.3542 40.8045ZM49 42.64C49 39.3199 48.5988 36.6255 47.786 34.5666L47.414 34.7134C48.2012 36.7079 48.6 39.3468 48.6 42.64H49ZM47.7877 34.5709C47.0269 32.5059 45.7979 30.9979 44.0962 30.0646L43.9038 30.4154C45.5087 31.2955 46.6798 32.7208 47.4123 34.7091L47.7877 34.5709ZM44.0962 30.0646C42.4032 29.1362 40.1797 28.68 37.44 28.68V29.08C40.1403 29.08 42.2902 29.5304 43.9038 30.4154L44.0962 30.0646ZM37.44 28.68C33.0912 28.68 29.5531 29.6465 26.8431 31.5977L27.0769 31.9223C29.7002 30.0335 33.1488 29.08 37.44 29.08V28.68ZM26.8438 31.5973C24.1825 33.4981 22.2426 36.5833 21.008 40.8241L21.392 40.9359C22.6107 36.75 24.5108 33.7552 27.0762 31.9227L26.8438 31.5973ZM21.0075 40.8257C19.8272 45.0105 19.24 50.5243 19.24 57.36H19.64C19.64 50.5424 20.2262 45.0695 21.3925 40.9343L21.0075 40.8257ZM19.24 57.36C19.24 64.2504 19.9074 69.8198 21.2493 74.0603L21.6307 73.9397C20.306 69.7535 19.64 64.2296 19.64 57.36H19.24ZM21.2495 74.061C22.5933 78.2537 24.7501 81.3366 27.7305 83.2873L27.9495 82.9527C25.0632 81.0634 22.9533 78.0663 21.6305 73.939L21.2495 74.061ZM27.7305 83.2873C30.706 85.235 34.5878 86.2 39.36 86.2V85.8C34.6388 85.8 30.8407 84.845 27.9495 82.9527L27.7305 83.2873ZM39.36 86.2C40.9159 86.2 42.419 86.0927 43.8693 85.8778L43.8107 85.4822C42.381 85.694 40.8975 85.8 39.36 85.8V86.2ZM43.8764 85.8767C45.3212 85.6091 46.6075 85.3144 47.7349 84.9923L47.6251 84.6077C46.5125 84.9256 45.2388 85.2176 43.8036 85.4833L43.8764 85.8767ZM47.88 84.8V65.84H47.48V84.8H47.88ZM47.88 65.84C47.88 64.5882 47.6351 63.5365 47.1315 62.6971L46.7885 62.9029C47.2449 63.6635 47.48 64.6385 47.48 65.84H47.88ZM47.1315 62.6971C46.6244 61.852 45.8382 61.2388 44.7891 60.8523L44.6509 61.2277C45.6285 61.5878 46.3356 62.148 46.7885 62.9029L47.1315 62.6971ZM44.8012 60.8572C43.808 60.4158 42.5782 60.2 41.12 60.2V60.6C42.5418 60.6 43.712 60.8108 44.6388 61.2228L44.8012 60.8572ZM41.12 60.2H40.8V60.6H41.12V60.2ZM41 60.4V59.6H40.6V60.4H41ZM40.8 59.8H61.6V59.4H40.8V59.8ZM61.4 59.6V60.4H61.8V59.6H61.4ZM61.6 60.2H61.28V60.6H61.6V60.2ZM61.28 60.2C59.8764 60.2 58.7462 60.4154 57.9059 60.8635L58.0941 61.2165C58.8538 60.8113 59.9103 60.6 61.28 60.6V60.2ZM57.9059 60.8635C57.065 61.312 56.4476 61.9865 56.0568 62.8798L56.4232 63.0402C56.7791 62.2268 57.335 61.6214 58.0941 61.2165L57.9059 60.8635ZM56.0527 62.8898C55.7217 63.7726 55.56 64.865 55.56 66.16H55.96C55.96 64.895 56.1183 63.854 56.4273 63.0302L56.0527 62.8898ZM55.56 66.16V83.12H55.96V66.16H55.56ZM55.6764 82.9383C53.0222 84.1592 50.2888 85.088 47.4758 85.7249L47.5642 86.1151C50.4046 85.472 53.1644 84.5341 55.8436 83.3017L55.6764 82.9383ZM47.4794 85.7242C44.6684 86.3076 41.5356 86.6 38.08 86.6V87C41.5577 87 44.7183 86.7058 47.5606 86.1158L47.4794 85.7242Z" fill="black"/>
</g>
<g filter="url(#filter6_d_405_19)">
<path d="M153.92 86.8C160.107 86.8 165.253 85.5733 169.36 83.12C173.413 80.6667 176.453 77.2533 178.48 72.88C180.453 68.4533 181.44 63.28 181.44 57.36C181.44 51.6 180.453 46.5333 178.48 42.16C176.507 37.7333 173.52 34.2933 169.52 31.84C165.467 29.3333 160.373 28.08 154.24 28.08C150.293 28.08 146.96 28.4533 144.24 29.2C141.467 29.9467 139.36 30.9867 137.92 32.32C136.48 33.6 135.76 35.0933 135.76 36.8C135.76 38.6133 136.347 40 137.52 40.96C138.64 41.8667 140.533 42.4267 143.2 42.64C143.2 39.3333 143.6 36.6667 144.4 34.64C145.147 32.6133 146.347 31.1467 148 30.24C149.653 29.3333 151.84 28.88 154.56 28.88C158.88 28.88 162.373 29.84 165.04 31.76C167.653 33.6267 169.573 36.6667 170.8 40.88C171.973 45.04 172.56 50.5333 172.56 57.36C172.56 64.24 171.893 69.7867 170.56 74C169.227 78.16 167.093 81.2 164.16 83.12C161.227 85.04 157.387 86 152.64 86C151.093 86 149.6 85.8933 148.16 85.68C146.72 85.4133 145.44 85.12 144.32 84.8V65.84C144.32 64.6133 144.56 63.6 145.04 62.8C145.52 62 146.267 61.4133 147.28 61.04C148.24 60.6133 149.44 60.4 150.88 60.4H151.2V59.6H130.4V60.4H130.72C132.107 60.4 133.2 60.6133 134 61.04C134.8 61.4667 135.387 62.1067 135.76 62.96C136.08 63.8133 136.24 64.88 136.24 66.16V83.12C138.907 84.3467 141.653 85.28 144.48 85.92C147.307 86.5067 150.453 86.8 153.92 86.8Z" fill="white"/>
<path d="M169.36 83.12L169.464 83.2911L169.463 83.2917L169.36 83.12ZM178.48 72.88L178.663 72.9614L178.661 72.9641L178.48 72.88ZM178.48 42.16L178.298 42.2423L178.297 42.2414L178.48 42.16ZM169.52 31.84L169.415 32.0105L169.415 32.0101L169.52 31.84ZM144.24 29.2L144.293 29.3929L144.292 29.3931L144.24 29.2ZM137.92 32.32L138.056 32.4668L138.053 32.4695L137.92 32.32ZM137.52 40.96L137.394 41.1154L137.393 41.1148L137.52 40.96ZM143.2 42.64H143.4V42.8566L143.184 42.8394L143.2 42.64ZM144.4 34.64L144.588 34.7092L144.586 34.7134L144.4 34.64ZM148 30.24L148.096 30.4154L148.096 30.4154L148 30.24ZM165.04 31.76L164.924 31.9227L164.923 31.9223L165.04 31.76ZM170.8 40.88L170.992 40.8241L170.992 40.8257L170.8 40.88ZM170.56 74L170.751 74.0603L170.75 74.061L170.56 74ZM164.16 83.12L164.27 83.2873L164.27 83.2873L164.16 83.12ZM148.16 85.68L148.131 85.878L148.124 85.8767L148.16 85.68ZM144.32 84.8L144.265 84.9923L144.12 84.9509V84.8H144.32ZM145.04 62.8L144.868 62.6971L144.868 62.6971L145.04 62.8ZM147.28 61.04L147.361 61.2232L147.349 61.2277L147.28 61.04ZM151.2 60.4H151.4V60.6H151.2V60.4ZM151.2 59.6V59.4H151.4V59.6H151.2ZM130.4 59.6H130.2V59.4H130.4V59.6ZM130.4 60.4V60.6H130.2V60.4H130.4ZM134 61.04L133.906 61.2165L133.906 61.2165L134 61.04ZM135.76 62.96L135.943 62.8797L135.947 62.8898L135.76 62.96ZM136.24 83.12L136.156 83.3017L136.04 83.2481V83.12H136.24ZM144.48 85.92L144.439 86.1159L144.436 86.1151L144.48 85.92ZM153.92 86.6C160.081 86.6 165.19 85.3784 169.257 82.9483L169.463 83.2917C165.317 85.7682 160.132 87 153.92 87V86.6ZM169.256 82.9489C173.275 80.5165 176.288 77.1338 178.299 72.7959L178.661 72.9641C176.618 77.3729 173.552 80.8168 169.464 83.2911L169.256 82.9489ZM178.297 72.7986C180.257 68.4025 181.24 63.258 181.24 57.36H181.64C181.64 63.302 180.65 68.5041 178.663 72.9614L178.297 72.7986ZM181.24 57.36C181.24 51.6228 180.257 46.5851 178.298 42.2423L178.662 42.0777C180.649 46.4816 181.64 51.5772 181.64 57.36H181.24ZM178.297 42.2414C176.34 37.8504 173.38 34.442 169.415 32.0105L169.625 31.6695C173.66 34.1447 176.673 37.6163 178.663 42.0786L178.297 42.2414ZM169.415 32.0101C165.401 29.5278 160.347 28.28 154.24 28.28V27.88C160.4 27.88 165.532 29.1388 169.625 31.6699L169.415 32.0101ZM154.24 28.28C150.305 28.28 146.99 28.6524 144.293 29.3929L144.187 29.0071C146.93 28.2543 150.282 27.88 154.24 27.88V28.28ZM144.292 29.3931C141.537 30.135 139.464 31.1633 138.056 32.4668L137.784 32.1732C139.256 30.81 141.397 29.7583 144.188 29.0069L144.292 29.3931ZM138.053 32.4695C136.649 33.717 135.96 35.1582 135.96 36.8H135.56C135.56 35.0285 136.311 33.483 137.787 32.1705L138.053 32.4695ZM135.96 36.8C135.96 38.5664 136.529 39.8907 137.647 40.8052L137.393 41.1148C136.164 40.1093 135.56 38.6603 135.56 36.8H135.96ZM137.646 40.8045C138.717 41.672 140.56 42.2282 143.216 42.4406L143.184 42.8394C140.507 42.6252 138.563 42.0613 137.394 41.1154L137.646 40.8045ZM143 42.64C143 39.3199 143.401 36.6255 144.214 34.5666L144.586 34.7134C143.799 36.7079 143.4 39.3468 143.4 42.64H143ZM144.212 34.5709C144.973 32.5059 146.202 30.9979 147.904 30.0646L148.096 30.4154C146.491 31.2955 145.32 32.7208 144.588 34.7091L144.212 34.5709ZM147.904 30.0646C149.597 29.1362 151.82 28.68 154.56 28.68V29.08C151.86 29.08 149.71 29.5304 148.096 30.4154L147.904 30.0646ZM154.56 28.68C158.909 28.68 162.447 29.6465 165.157 31.5977L164.923 31.9223C162.3 30.0335 158.851 29.08 154.56 29.08V28.68ZM165.156 31.5973C167.817 33.4981 169.757 36.5833 170.992 40.8241L170.608 40.9359C169.389 36.75 167.489 33.7552 164.924 31.9227L165.156 31.5973ZM170.992 40.8257C172.173 45.0105 172.76 50.5243 172.76 57.36H172.36C172.36 50.5424 171.774 45.0695 170.608 40.9343L170.992 40.8257ZM172.76 57.36C172.76 64.2504 172.093 69.8198 170.751 74.0603L170.369 73.9397C171.694 69.7535 172.36 64.2296 172.36 57.36H172.76ZM170.75 74.061C169.407 78.2537 167.25 81.3366 164.27 83.2873L164.05 82.9527C166.937 81.0634 169.047 78.0663 170.37 73.939L170.75 74.061ZM164.27 83.2873C161.294 85.235 157.412 86.2 152.64 86.2V85.8C157.361 85.8 161.159 84.845 164.05 82.9527L164.27 83.2873ZM152.64 86.2C151.084 86.2 149.581 86.0927 148.131 85.8778L148.189 85.4822C149.619 85.694 151.103 85.8 152.64 85.8V86.2ZM148.124 85.8767C146.679 85.6091 145.392 85.3144 144.265 84.9923L144.375 84.6077C145.488 84.9256 146.761 85.2176 148.196 85.4833L148.124 85.8767ZM144.12 84.8V65.84H144.52V84.8H144.12ZM144.12 65.84C144.12 64.5882 144.365 63.5365 144.868 62.6971L145.211 62.9029C144.755 63.6635 144.52 64.6385 144.52 65.84H144.12ZM144.868 62.6971C145.376 61.852 146.162 61.2388 147.211 60.8523L147.349 61.2277C146.372 61.5878 145.664 62.148 145.211 62.9029L144.868 62.6971ZM147.199 60.8572C148.192 60.4158 149.422 60.2 150.88 60.2V60.6C149.458 60.6 148.288 60.8108 147.361 61.2228L147.199 60.8572ZM150.88 60.2H151.2V60.6H150.88V60.2ZM151 60.4V59.6H151.4V60.4H151ZM151.2 59.8H130.4V59.4H151.2V59.8ZM130.6 59.6V60.4H130.2V59.6H130.6ZM130.4 60.2H130.72V60.6H130.4V60.2ZM130.72 60.2C132.124 60.2 133.254 60.4154 134.094 60.8635L133.906 61.2165C133.146 60.8113 132.09 60.6 130.72 60.6V60.2ZM134.094 60.8635C134.935 61.312 135.552 61.9865 135.943 62.8798L135.577 63.0402C135.221 62.2268 134.665 61.6214 133.906 61.2165L134.094 60.8635ZM135.947 62.8898C136.278 63.7726 136.44 64.865 136.44 66.16H136.04C136.04 64.895 135.882 63.854 135.573 63.0302L135.947 62.8898ZM136.44 66.16V83.12H136.04V66.16H136.44ZM136.324 82.9383C138.978 84.1592 141.711 85.088 144.524 85.7249L144.436 86.1151C141.595 85.472 138.836 84.5341 136.156 83.3017L136.324 82.9383ZM144.521 85.7242C147.332 86.3076 150.464 86.6 153.92 86.6V87C150.442 87 147.282 86.7058 144.439 86.1158L144.521 85.7242Z" fill="black"/>
</g>
<defs>
<filter id="filter0_f_405_19" x="0.559998" y="75.2" width="190.88" height="78.72" filterUnits="userSpaceOnUse" color-interpolation-filters="sRGB">
<feFlood flood-opacity="0" result="BackgroundImageFix"/>
<feBlend mode="normal" in="SourceGraphic" in2="BackgroundImageFix" result="shape"/>
<feGaussianBlur stdDeviation="5" result="effect1_foregroundBlur_405_19"/>
</filter>
<filter id="filter1_d_405_19" x="47.28" y="85.4" width="95.8231" height="52.1" filterUnits="userSpaceOnUse" color-interpolation-filters="sRGB">
<feFlood flood-opacity="0" result="BackgroundImageFix"/>
<feColorMatrix in="SourceAlpha" type="matrix" values="0 0 0 0 0 0 0 0 0 0 0 0 0 0 0 0 0 0 127 0" result="hardAlpha"/>
<feOffset dy="4"/>
<feGaussianBlur stdDeviation="2"/>
<feComposite in2="hardAlpha" operator="out"/>
<feColorMatrix type="matrix" values="0 0 0 0 0 0 0 0 0 0 0 0 0 0 0 0 0 0 0.25 0"/>
<feBlend mode="normal" in2="BackgroundImageFix" result="effect1_dropShadow_405_19"/>
<feBlend mode="normal" in="SourceGraphic" in2="effect1_dropShadow_405_19" result="shape"/>
</filter>
<filter id="filter2_d_405_19" x="6.56" y="85.2" width="59.04" height="66.72" filterUnits="userSpaceOnUse" color-interpolation-filters="sRGB">
<feFlood flood-opacity="0" result="BackgroundImageFix"/>
<feColorMatrix in="SourceAlpha" type="matrix" values="0 0 0 0 0 0 0 0 0 0 0 0 0 0 0 0 0 0 127 0" result="hardAlpha"/>
<feOffset dy="4"/>
<feGaussianBlur stdDeviation="2"/>
<feComposite in2="hardAlpha" operator="out"/>
<feColorMatrix type="matrix" values="0 0 0 0 0 0 0 0 0 0 0 0 0 0 0 0 0 0 0.25 0"/>
<feBlend mode="normal" in2="BackgroundImageFix" result="effect1_dropShadow_405_19"/>
<feBlend mode="normal" in="SourceGraphic" in2="effect1_dropShadow_405_19" result="shape"/>
</filter>
<filter id="filter3_d_405_19" x="126.4" y="85.2" width="59.04" height="66.72" filterUnits="userSpaceOnUse" color-interpolation-filters="sRGB">
<feFlood flood-opacity="0" result="BackgroundImageFix"/>
<feColorMatrix in="SourceAlpha" type="matrix" values="0 0 0 0 0 0 0 0 0 0 0 0 0 0 0 0 0 0 127 0" result="hardAlpha"/>
<feOffset dy="4"/>
<feGaussianBlur stdDeviation="2"/>
<feComposite in2="hardAlpha" operator="out"/>
<feColorMatrix type="matrix" values="0 0 0 0 0 0 0 0 0 0 0 0 0 0 0 0 0 0 0.25 0"/>
<feBlend mode="normal" in2="BackgroundImageFix" result="effect1_dropShadow_405_19"/>
<feBlend mode="normal" in="SourceGraphic" in2="effect1_dropShadow_405_19" result="shape"/>
</filter>
<filter id="filter4_d_405_19" x="47.28" y="42.5" width="95.8231" height="52.1" filterUnits="userSpaceOnUse" color-interpolation-filters="sRGB">
<feFlood flood-opacity="0" result="BackgroundImageFix"/>
<feColorMatrix in="SourceAlpha" type="matrix" values="0 0 0 0 0 0 0 0 0 0 0 0 0 0 0 0 0 0 127 0" result="hardAlpha"/>
<feOffset dy="4"/>
<feGaussianBlur stdDeviation="2"/>
<feComposite in2="hardAlpha" operator="out"/>
<feColorMatrix type="matrix" values="0 0 0 0 0 0 0 0 0 0 0 0 0 0 0 0 0 0 0.25 0"/>
<feBlend mode="normal" in2="BackgroundImageFix" result="effect1_dropShadow_405_19"/>
<feBlend mode="normal" in="SourceGraphic" in2="effect1_dropShadow_405_19" result="shape"/>
</filter>
<filter id="filter5_d_405_19" x="6.56" y="28.08" width="59.04" height="66.72" filterUnits="userSpaceOnUse" color-interpolation-filters="sRGB">
<feFlood flood-opacity="0" result="BackgroundImageFix"/>
<feColorMatrix in="SourceAlpha" type="matrix" values="0 0 0 0 0 0 0 0 0 0 0 0 0 0 0 0 0 0 127 0" result="hardAlpha"/>
<feOffset dy="4"/>
<feGaussianBlur stdDeviation="2"/>
<feComposite in2="hardAlpha" operator="out"/>
<feColorMatrix type="matrix" values="0 0 0 0 0 0 0 0 0 0 0 0 0 0 0 0 0 0 0.25 0"/>
<feBlend mode="normal" in2="BackgroundImageFix" result="effect1_dropShadow_405_19"/>
<feBlend mode="normal" in="SourceGraphic" in2="effect1_dropShadow_405_19" result="shape"/>
</filter>
<filter id="filter6_d_405_19" x="126.4" y="28.08" width="59.04" height="66.72" filterUnits="userSpaceOnUse" color-interpolation-filters="sRGB">
<feFlood flood-opacity="0" result="BackgroundImageFix"/>
<feColorMatrix in="SourceAlpha" type="matrix" values="0 0 0 0 0 0 0 0 0 0 0 0 0 0 0 0 0 0 127 0" result="hardAlpha"/>
<feOffset dy="4"/>
<feGaussianBlur stdDeviation="2"/>
<feComposite in2="hardAlpha" operator="out"/>
<feColorMatrix type="matrix" values="0 0 0 0 0 0 0 0 0 0 0 0 0 0 0 0 0 0 0.25 0"/>
<feBlend mode="normal" in2="BackgroundImageFix" result="effect1_dropShadow_405_19"/>
<feBlend mode="normal" in="SourceGraphic" in2="effect1_dropShadow_405_19" result="shape"/>
</filter>
</defs>
</svg>
